<svg width="360" height="491" xmlns="http://www.w3.org/2000/svg" xmlns:xlink="http://www.w3.org/1999/xlink">
    <defs>
        <path id="a" d="M0 0h360v584H0z"/>
    </defs>
    <g transform="translate(0 -44)" fill="none" fill-rule="evenodd">
        <mask id="b" fill="#fff">
            <use xlink:href="#a"/>
        </mask>
        <use fill-opacity="0" fill="#FFF" xlink:href="#a"/>
        <g mask="url(#b)">
            <path d="M330.654 97.428c-4.121 25.045-27.765 42.008-52.811 37.888-25.045-4.121-42.008-27.765-37.887-52.811 4.12-25.046 27.764-42.01 52.81-37.888 25.045 4.12 42.008 27.765 37.888 52.81" fill="#FDDB5A"/>
            <path d="M286.667 58.42a3.795 3.795 0 1 1-7.492-1.232 3.795 3.795 0 0 1 7.492 1.233" fill="#FFF"/>
            <path d="M297.354 77.885c-4.076 3.305-9.826 3.633-14.268.396-3.522-2.568-5.09-6.306-4.693-10.351" stroke="#FFF" stroke-width="3.796" stroke-linecap="round"/>
            <path d="M310.065 71.695a3.795 3.795 0 1 1-7.491-1.232 3.796 3.796 0 1 1 7.49 1.232" fill="#FFF"/>
            <g>
                <path d="M202.631 73.825H86.217c-10.31 0-18.667 8.357-18.667 18.667 0 10.31 8.357 18.667 18.667 18.667h5.657c6.561 0 11.879-5.318 11.879-11.879 0-6.56-5.318-11.879-11.879-11.879h-8.485" stroke="#D2EFFE" stroke-width="1.503" stroke-linecap="round" stroke-linejoin="round"/>
                <path d="M429.72 144.367c.524-1.796 3.668-35.925-32.03-37.014-4.73-.144-9.192 1.083-13.132 2.992-3.187-20.225-19.261-35.614-38.625-35.614-21.654 0-39.21 19.24-39.21 42.974 0 4.173.555 8.202 1.566 12.017-6.496-4.535-15.202-7.312-24.777-7.312-17.661 0-32.38 9.438-35.687 21.957H429.72z" fill="#D2EFFE"/>
            </g>
            <g>
                <path d="M4.82 479.616c-.324-1.11-2.268-22.21 19.802-22.883 2.925-.089 5.682.67 8.12 1.85 1.97-12.504 11.907-22.018 23.877-22.018 13.388 0 24.242 11.895 24.242 26.568 0 2.58-.343 5.071-.97 7.43 4.017-2.804 9.4-4.52 15.32-4.52 10.918 0 20.017 5.834 22.061 13.573H4.82z" fill="#D2EFFE"/>
                <path d="M20.233 533.554h-30.714c-9.123 0-16.518-7.396-16.518-16.52 0-9.122 7.395-16.517 16.518-16.517h30.714c9.124 0 16.52 7.395 16.52 16.518 0 9.123-7.396 16.519-16.52 16.519z" stroke="#D2EFFE" stroke-width="2" stroke-linecap="round" stroke-linejoin="round"/>
            </g>
        </g>
    </g>
</svg>
