<svg width="20" height="20" viewBox="0 0 20 20" xmlns="http://www.w3.org/2000/svg">
    <g stroke="#FFF" stroke-width="1.111" fill="none" fill-rule="evenodd" stroke-linecap="round" stroke-linejoin="round">
        <path d="M15.833 12.667V7.333c0-.476-.247-.916-.648-1.154l-4.537-2.667a1.265 1.265 0 0 0-1.296 0L4.815 6.179c-.4.238-.648.678-.648 1.154v5.334c0 .476.247.916.648 1.154l4.537 2.667c.4.238.895.238 1.296 0l4.537-2.667c.4-.238.648-.678.648-1.154z"/>
        <path d="M4.167 7.5 10 10.833 15.833 7.5M10.413 16.667a8181.532 8181.532 0 0 1 0 0z"/>
    </g>
</svg>
