<svg xmlns="http://www.w3.org/2000/svg" width="60" height="71" viewBox="0 0 60 71">
    <g fill="none" fill-rule="evenodd">
        <g>
            <g>
                <path stroke="#DDD" stroke-width="1.3" d="M50.414 46.218H8.433C4.052 46.218.5 42.666.5 38.286V8.432C.5 4.052 4.052.5 8.433.5h41.98c4.382 0 7.934 3.552 7.934 7.932v29.854c0 4.38-3.552 7.932-7.933 7.932z" transform="translate(-149 -298) translate(150 299)"/>
                <path fill="#DDD" d="M30.433 25.36c9.47 0 17.145 7.677 17.145 17.146 0 9.468-7.676 17.144-17.145 17.144s-17.146-7.676-17.146-17.144c0-9.469 7.677-17.146 17.146-17.146" transform="translate(-149 -298) translate(150 299)"/>
                <path fill="#DDD" d="M22.067 45.327L12.931 62.539 21.227 61.772 25.242 69.073 34.379 51.861z" transform="translate(-149 -298) translate(150 299)"/>
                <path fill="#DDD" d="M39.156 45.327L48.292 62.539 39.996 61.772 35.98 69.073 26.844 51.861z" transform="translate(-149 -298) translate(150 299)"/>
                <path fill="#DDD" d="M30.61 27.241c8.432 0 15.266 6.834 15.266 15.265 0 8.43-6.834 15.264-15.265 15.264-8.43 0-15.265-6.834-15.265-15.264S22.18 27.241 30.61 27.241" transform="translate(-149 -298) translate(150 299)"/>
                <path fill="#FFF" d="M30.61 53.4c-6.007 0-10.895-4.889-10.895-10.896 0-6.007 4.888-10.895 10.896-10.895 6.009 0 10.896 4.89 10.896 10.896 0 6.007-4.887 10.895-10.896 10.895" transform="translate(-149 -298) translate(150 299)"/>
                <path fill="#DDD" d="M49.754 13.325H10.438c-.584 0-1.063-.478-1.063-1.062 0-.584.48-1.063 1.063-1.063h39.316c.585 0 1.062.48 1.062 1.063 0 .584-.477 1.062-1.063 1.062M37.604 19.624h-17.54c-.397 0-.72-.324-.72-.72v-.686c0-.396.323-.72.72-.72h17.54c.396 0 .72.324.72.72v.686c0 .396-.324.72-.72.72M34.373 39.639l1.349.295c.16.035.255.2.205.355l-.42 1.316c-.031.102-.001.216.079.289l1.019.93c.122.11.122.299 0 .41l-1.02.929c-.08.074-.11.186-.077.289l.419 1.316c.05.155-.045.32-.205.355l-1.35.295c-.104.023-.187.106-.21.212l-.295 1.348c-.035.16-.2.255-.355.205l-1.316-.42c-.103-.031-.216-.001-.29.079l-.93 1.02c-.11.12-.3.12-.41 0l-.928-1.02c-.074-.08-.187-.11-.29-.078l-1.315.419c-.155.05-.32-.045-.355-.205l-.295-1.348c-.024-.106-.106-.19-.212-.212l-1.348-.295c-.16-.035-.255-.2-.205-.355l.418-1.316c.033-.103.003-.215-.077-.29l-1.021-.928c-.12-.111-.12-.3 0-.41l1.02-.93c.08-.073.11-.187.078-.29l-.418-1.315c-.05-.155.045-.32.205-.355l1.348-.295c.106-.023.188-.105.212-.212l.295-1.348c.035-.16.2-.254.355-.205l1.316.418c.102.034.215.003.289-.077l.929-1.02c.11-.12.3-.12.41 0l.93 1.02c.073.08.186.11.289.077l1.316-.418c.155-.05.32.045.355.205" transform="translate(-149 -298) translate(150 299)"/>
            </g>
        </g>
    </g>
</svg>
