<svg xmlns="http://www.w3.org/2000/svg" width="279" height="183" viewBox="0 0 279 183">
    <defs>
        <linearGradient id="yk5j6z19ka" x1="50%" x2="50%" y1="8.303%" y2="99.521%">
            <stop offset="0%" stop-color="#EEE"/>
            <stop offset="100%" stop-color="#FFF" stop-opacity="0"/>
        </linearGradient>
    </defs>
    <g fill="none" fill-rule="evenodd">
        <g>
            <g>
                <g fill-rule="nonzero">
                    <g>
                        <g fill="#DBDADA">
                            <path d="M4.4 0L0 20.51 8.43 20.51z" transform="translate(-43.000000, -237.000000) translate(43.252052, 237.000000) translate(227.743948, 134.314000)"/>
                        </g>
                        <g fill="#90949C">
                            <path d="M0 0H1V12.885H0z" transform="translate(-43.000000, -237.000000) translate(43.252052, 237.000000) translate(227.743948, 134.314000) translate(3.928000, 11.160000)"/>
                        </g>
                    </g>
                </g>
                <path fill="url(#yk5j6z19ka)" d="M136.335 180.68c45.656 0 93.098.659 142.326 1.979-50.287-32-98.258-48-143.913-48-45.656 0-90.572 15.696-134.748 47.089 45.235-.713 90.68-1.069 136.335-1.069z" transform="translate(-43.000000, -237.000000) translate(43.252052, 237.000000)"/>
                <g>
                    <g fill="#7789EE" fill-rule="nonzero">
                        <g>
                            <path d="M3.751 0.414L11.398 0.363 11.129 42.696 3.482 42.747z" transform="translate(-43.000000, -237.000000) translate(43.252052, 237.000000) translate(83.874807, 37.000000) translate(42.873141, 56.000048) translate(17.593721, 0.000000) translate(7.439991, 21.555049) rotate(-9.610000) translate(-7.439991, -21.555049)"/>
                        </g>
                        <g>
                            <path d="M17.024 7.534L1.132 7.49 0 0l9.874.026c3.915.008 7.085 3.367 7.085 7.508h.065z" transform="translate(-43.000000, -237.000000) translate(43.252052, 237.000000) translate(83.874807, 37.000000) translate(42.873141, 56.000048) translate(23.976193, 38.465644)"/>
                        </g>
                        <g>
                            <path d="M0 7.508l16.735-.019L15.41.121 6.892 0C5.063-.004 3.308.786 2.015 2.195.722 3.604-.003 5.515 0 7.508z" transform="translate(-43.000000, -237.000000) translate(43.252052, 237.000000) translate(83.874807, 37.000000) translate(42.873141, 56.000048) translate(0.000000, 38.491975)"/>
                        </g>
                        <g>
                            <path d="M3.855 0.431L11.443 0.364 11.089 42.869 3.501 42.936z" transform="translate(-43.000000, -237.000000) translate(43.252052, 237.000000) translate(83.874807, 37.000000) translate(42.873141, 56.000048) translate(1.313580, 0.157716) translate(7.472138, 21.649891) rotate(-9.620000) translate(-7.472138, -21.649891)"/>
                        </g>
                    </g>
                    <g fill="#D8D8D8" fill-rule="nonzero" transform="translate(-43.000000, -237.000000) translate(43.252052, 237.000000) translate(83.874807, 37.000000) translate(37.873141, 19.000000)">
                        <rect width="41" height="43" rx="9.15"/>
                    </g>
                    <g fill-rule="nonzero">
                        <g>
                            <g fill="#FFF" transform="translate(-43.000000, -237.000000) translate(43.252052, 237.000000) translate(83.874807, 37.000000) translate(41.898594, 27.151248)">
                                <ellipse cx="6.809" cy="7.726" rx="6.809" ry="7.726"/>
                            </g>
                            <g fill="#1E1E1E" transform="translate(-43.000000, -237.000000) translate(43.252052, 237.000000) translate(83.874807, 37.000000) translate(41.898594, 27.151248) translate(3.080563, 7.983259)">
                                <ellipse cx="3.093" cy="3.124" rx="3.093" ry="3.124"/>
                            </g>
                        </g>
                        <g fill="#FFF" transform="translate(-43.000000, -237.000000) translate(43.252052, 237.000000) translate(83.874807, 37.000000) translate(41.898594, 27.151248) translate(12.930304, 0.000000)">
                            <ellipse cx="6.809" cy="7.726" rx="6.809" ry="7.726"/>
                        </g>
                        <g fill="#1E1E1E" transform="translate(-43.000000, -237.000000) translate(43.252052, 237.000000) translate(83.874807, 37.000000) translate(41.898594, 27.151248) translate(15.718154, 7.983259)">
                            <ellipse cx="3.093" cy="3.124" rx="3.093" ry="3.124"/>
                        </g>
                    </g>
                    <g fill="#1E1E1E" fill-rule="nonzero">
                        <path d="M0 0c.09 1.724 1.657 3.086 3.576 3.11 1.918.024 3.525-1.3 3.67-3.02V0H0z" transform="translate(-43.000000, -237.000000) translate(43.252052, 237.000000) translate(83.874807, 37.000000) translate(55.810110, 45.879221) scale(1, -1) translate(-55.810110, -45.879221) translate(52.187526, 44.324049)"/>
                    </g>
                    <g fill="#5B5B5B" fill-rule="nonzero">
                        <path d="M10 5.793L1.645.18c-.48-.32-1.132-.2-1.464.268C.065.62.003.825 0 1.034v8.932C0 10.537.47 11 1.05 11c.192 0 .38-.053.543-.153L10 5.793z" transform="translate(-43.000000, -237.000000) translate(43.252052, 237.000000) translate(83.874807, 37.000000) translate(44.873141, 56.000000)"/>
                    </g>
                    <g fill="#5B5B5B" fill-rule="nonzero">
                        <path d="M0 5.826L8.362.19c.466-.323 1.108-.227 1.456.217.116.176.18.38.182.59v8.965C10 10.536 9.528 11 8.947 11c-.193 0-.383-.053-.546-.154L0 5.826z" transform="translate(-43.000000, -237.000000) translate(43.252052, 237.000000) translate(83.874807, 37.000000) translate(53.873141, 56.000000)"/>
                    </g>
                    <path fill="#FF9334" d="M9.228 50.146H52.41c2.229 0 3.037.232 3.852.668.815.436 1.454 1.075 1.89 1.89.436.815.668 1.623.668 3.852v20.18c0 2.23-.232 3.038-.668 3.852-.436.815-1.075 1.455-1.89 1.89-.815.436-1.623.668-3.852.668H9.229c-2.23 0-3.038-.232-3.852-.667-.815-.436-1.455-1.076-1.89-1.89-.436-.815-.668-1.624-.668-3.852v-20.18c0-2.23.232-3.038.668-3.853.435-.815 1.075-1.454 1.89-1.89.814-.436 1.623-.668 3.851-.668z" transform="translate(-43.000000, -237.000000) translate(43.252052, 237.000000) translate(83.874807, 37.000000) translate(30.818676, 66.646355) rotate(12.000000) translate(-30.818676, -66.646355)"/>
                    <text fill="#FFF" font-family="Nunito-Black, Nunito" font-size="10" font-weight="800" transform="translate(-43.000000, -237.000000) translate(43.252052, 237.000000) translate(83.874807, 37.000000) translate(30.983995, 66.760455) rotate(12.000000) translate(-30.983995, -66.760455)">
                        <tspan x="23.219" y="62.76">NO</tspan> <tspan x="8.849" y="76.76">RESULTS</tspan>
                    </text>
                    <g stroke="#1E1E1E" stroke-linecap="round">
                        <path d="M0 2.093c2.098 2.763 5.454 3.405 10.068 1.925C14.682 2.538 18.733 1.2 22.22 0" transform="translate(-43.000000, -237.000000) translate(43.252052, 237.000000) translate(83.874807, 37.000000) translate(29.197097, 51.586636) scale(-1, -1) rotate(-56.000000) translate(-29.197097, -51.586636) translate(18.087235, 49.190474)"/>
                    </g>
                    <g fill="#1E1E1E" fill-rule="nonzero">
                        <g>
                            <path d="M.478 7.405c-.127 0-.248-.046-.338-.128-.09-.082-.14-.193-.14-.31 0-.103.04-.202.113-.282l3.263-3.522L1.772.695C1.666.56 1.651.384 1.734.237c.082-.147.249-.239.43-.237.18.002.345.096.424.245l1.745 2.738c.124.148.124.353 0 .501L.844 7.25c-.091.099-.225.155-.366.155z" transform="translate(-43.000000, -237.000000) translate(43.252052, 237.000000) translate(83.874807, 37.000000) translate(66.193834, 50.192401) translate(1.505168, 0.000000)"/>
                        </g>
                        <g>
                            <path d="M.478 3.252C.212 3.245 0 3.046 0 2.802c.003-.16.1-.307.253-.385L3.475.874H.858C.597.874.381.688.366.45.366.206.578.007.844 0h4.628c.219.005.408.14.464.334.057.194-.043.398-.239.489L.703 3.227c-.072.021-.149.03-.225.025z" transform="translate(-43.000000, -237.000000) translate(43.252052, 237.000000) translate(83.874807, 37.000000) translate(66.193834, 50.192401) translate(0.000000, 2.789890)"/>
                        </g>
                    </g>
                    <g fill="#1E1E1E" fill-rule="nonzero">
                        <path d="M7.817 15c-2.525-.024-5.038-.354-7.483-.981-.116-.025-.217-.097-.277-.199-.06-.102-.073-.225-.037-.338.025-.113.094-.212.193-.274.098-.061.218-.08.33-.053 9.829 2.395 15.935-.131 18.346-3.311 1.311-1.504 1.58-3.65.682-5.431C18.116 1.796 14.093.487 8.812.997c-.249.023-.47-.157-.498-.405-.015-.244.164-.457.407-.484 5.74-.524 9.972.876 11.636 3.925 1.078 2.087.782 4.617-.747 6.4C17.684 12.867 13.753 15 7.817 15z" transform="translate(-43.000000, -237.000000) translate(43.252052, 237.000000) translate(83.874807, 37.000000) translate(71.873141, 40.000000)"/>
                    </g>
                    <g fill="#1E1E1E" fill-rule="nonzero">
                        <g>
                            <path d="M.38 5.857c-.101 0-.198-.045-.269-.127C.04 5.65 0 5.538 0 5.423c0-.102.032-.202.09-.28l2.4-3.205L1.268.594c-.135-.178-.082-.37.035-.518.078-.098.206-.101.382-.009l1.554 1.68c.099.147.155.36.057.506L.67 5.704c-.073.098-.179.154-.29.153z" transform="translate(-43.000000, -237.000000) translate(43.252052, 237.000000) translate(83.874807, 37.000000) translate(23.569850, 64.182604) scale(-1, 1) rotate(-100.000000) translate(-23.569850, -64.182604) translate(20.787243, 61.253923) translate(2.218149, -0.000000)"/>
                        </g>
                        <g>
                            <path d="M.402 3.346C.178 3.339 0 3.146 0 2.908c.003-.156.084-.299.213-.375L3.442.831l-2.72.203C.501 1.034.32.853.306.62c0-.237.178-.43.402-.437L4.555 0c.184.005.407.186.454.373.048.19-.056.523-.22.61L.59 3.322c-.06.021-.125.03-.189.025z" transform="translate(-43.000000, -237.000000) translate(43.252052, 237.000000) translate(83.874807, 37.000000) translate(23.569850, 64.182604) scale(-1, 1) rotate(-100.000000) translate(-23.569850, -64.182604) translate(20.787243, 61.253923) translate(0.000000, 1.861248)"/>
                        </g>
                    </g>
                    <g fill="#393939" fill-rule="nonzero">
                        <path d="M41.96 17.037c-.772 5.837-10.756 9.1-22.337 7.6-11.58-1.5-20.348-7.5-19.576-13.275.33-2.5 2.332-4.525 5.398-5.962 1.43 1.737 3.196 3.177 5.195 4.237C9.78 8.378 9.398 6.86 9.563 5.35c.471-2.337 2.03-4.319 4.206-5.35.018 2.394 1.114 4.657 2.99 6.175 1.563-2.009 3.733-3.475 6.196-4.188.125.441.313.862.558 1.25C25.07 5.627 27.587 7.25 30.43 7.7c9.072 1.525 11.948 6.137 11.53 9.337z" transform="translate(-43.000000, -237.000000) translate(43.252052, 237.000000) translate(83.874807, 37.000000) translate(33.873141, 0.000000)"/>
                    </g>
                </g>
                <g fill-rule="nonzero">
                    <g>
                        <g fill="#C7CACD">
                            <path d="M6.583 0L0 30.7 12.618 30.7z" transform="translate(-43.000000, -237.000000) translate(43.252052, 237.000000) translate(38.974948, 119.981000)"/>
                        </g>
                        <g fill="#90949C">
                            <path d="M0 0H1V19.286H0z" transform="translate(-43.000000, -237.000000) translate(43.252052, 237.000000) translate(38.974948, 119.981000) translate(5.878000, 16.702000)"/>
                        </g>
                    </g>
                </g>
                <path fill="#E8E8E8" fill-rule="nonzero" d="M257.082 16.795c.131-.442.198-.9.2-1.362-.042-2.8-2.345-5.035-5.145-4.994-1.608-.007-3.128.732-4.116 2-1.008-2.782-3.67-4.617-6.63-4.57-1.096-.002-2.18.245-3.167.722-.77-4.879-4.646-8.591-9.317-8.591-5.224 0-9.46 4.641-9.46 10.366 0 .979.128 1.954.379 2.9-1.768-1.18-3.852-1.795-5.977-1.764-4.26 0-7.811 2.277-8.61 5.3l51.843-.007z" opacity=".776" transform="translate(-43.000000, -237.000000) translate(43.252052, 237.000000)"/>
                <path fill="#E8E8E8" fill-rule="nonzero" d="M61.915 35.701c.083-.283.125-.576.125-.87-.027-1.789-1.499-3.217-3.287-3.19-1.027-.004-1.997.467-2.63 1.276-.643-1.777-2.344-2.949-4.233-2.919-.7-.001-1.393.156-2.024.461-.363-3.045-2.888-5.372-5.952-5.488-3.337 0-6.042 2.965-6.042 6.622 0 .625.08 1.248.24 1.852-1.128-.754-2.46-1.147-3.817-1.127-2.721 0-4.99 1.454-5.5 3.383h33.12z" opacity=".566" transform="translate(-43.000000, -237.000000) translate(43.252052, 237.000000)"/>
            </g>
        </g>
    </g>
</svg>
