<svg xmlns="http://www.w3.org/2000/svg" xmlns:xlink="http://www.w3.org/1999/xlink" width="216" height="205" viewBox="0 0 216 205">
    <defs>
        <ellipse id="aiusf2hm8c" cx="25.778" cy="25.11" rx="25.778" ry="25.11"/>
        <rect id="eltaxjb97a" width="189" height="205" x="0" y="0" rx="60.5"/>
    </defs>
    <g fill="none" fill-rule="evenodd">
        <g>
            <g transform="translate(-81 -422) translate(81 422)">
                <rect width="201" height="121" y="84" fill="#FFEB96" rx="60.5"/>
                <g transform="translate(27)">
                    <mask id="09k3c5jvhb" fill="#fff">
                        <use xlink:href="#eltaxjb97a"/>
                    </mask>
                    <g mask="url(#09k3c5jvhb)">
                        <g>
                            <g>
                                <g transform="translate(94 7) translate(.009 .387)">
                                    <path stroke="#2F1816" stroke-width="13.622" d="M37.09 157.169L37.09 224.277M15.397 157.169L15.397 224.277"/>
                                    <path fill="#2AAAEE" d="M8.559 81.081H43.873999999999995V113.369H8.559z"/>
                                    <path stroke="#1E1E1E" stroke-linecap="round" stroke-linejoin="round" stroke-width=".757" d="M24.255 97.001c1.563.562 2.375 2.284 1.814 3.847l-.014.037c-.919 2.457-1.913 2.982-2.982 1.575-2.114-2.783 4.486-2.369 5.091 1.53.403 2.599-.658 3.439-3.183 2.52"/>
                                    <path fill="#1E8DDD" d="M8.559 105.297L22.422 105.297 26.216 111.608 29.482 105.297 43.874 105.297 43.874 159.784 8.559 159.784z"/>
                                    <path fill="#2F1816" d="M8.559 150.45H43.873999999999995V159.783H8.559z"/>
                                    <path fill="#FFF" d="M26.216 111.774L22.419 105.55 20.422 114.883z"/>
                                    <path fill="#FFF" d="M31.458 111.774L27.661 105.55 25.664 114.883z" transform="matrix(-1 0 0 1 57.123 0)"/>
                                    <path fill="#8ED6FE" d="M8.559 121.716l4.752-3.298c2.61-1.812 6.083-1.758 8.636.134 2.54 1.883 6.009 1.897 8.564.034l.047-.034c2.596-1.892 6.108-1.92 8.733-.068l4.583 3.232v5.527l-3.383-2.986c-2.684-2.37-6.643-2.588-9.57-.527l-.563.395c-2.608 1.835-6.128 1.673-8.556-.395-2.446-2.084-5.972-2.308-8.661-.55l-4.582 2.993v-4.457z" opacity=".293" transform="matrix(1 0 0 -1 0 242.63)"/>
                                    <path fill="#8ED6FE" d="M8.559 132.059l4.752-3.299c2.61-1.811 6.083-1.757 8.636.134 2.54 1.883 6.009 1.897 8.564.035l.047-.035c2.596-1.891 6.108-1.919 8.733-.068l4.583 3.233v5.527l-3.383-2.987c-2.684-2.37-6.643-2.587-9.57-.527l-.563.395c-2.608 1.836-6.128 1.673-8.556-.395-2.446-2.083-5.972-2.307-8.661-.55l-4.582 2.994v-4.457z" opacity=".293" transform="matrix(1 0 0 -1 0 263.315)"/>
                                    <path fill="#8ED6FE" d="M8.559 143.662l4.752-3.298c2.61-1.812 6.083-1.758 8.636.134 2.54 1.883 6.009 1.897 8.564.034l.047-.034c2.596-1.892 6.108-1.92 8.733-.068l4.583 3.232v5.527l-3.383-2.986c-2.684-2.37-6.643-2.588-9.57-.527l-.563.395c-2.608 1.835-6.128 1.673-8.556-.395-2.446-2.084-5.972-2.308-8.661-.55l-4.582 2.993v-4.457z" opacity=".293" transform="matrix(1 0 0 -1 0 286.523)"/>
                                    <ellipse cx="11.278" cy="21.289" fill="#2F1816" rx="10.287" ry="10.338"/>
                                    <ellipse cx="21.566" cy="10.951" fill="#2F1816" rx="10.287" ry="10.338"/>
                                    <ellipse cx="42.404" cy="21.289" fill="#2F1816" rx="10.551" ry="10.603"/>
                                    <ellipse cx="32.644" cy="11.746" fill="#2F1816" rx="7.65" ry="7.687"/>
                                    <rect width="50.198" height="77.694" x=".991" y="18.018" fill="#2AAAEE" rx="23.964"/>
                                    <ellipse cx="31.892" cy="24.955" fill="#2F1816" rx="19.297" ry="10.468"/>
                                    <path fill="#FFF" d="M26.72 48.199c0 4.873-3.726 8.823-8.324 8.823-4.597 0-8.324-3.95-8.324-8.823s3.727-8.824 8.324-8.824c4.598 0 8.325 3.95 8.325 8.824M43.37 48.199c0 4.873-3.728 8.823-8.325 8.823-4.597 0-8.324-3.95-8.324-8.823s3.727-8.824 8.324-8.824c4.597 0 8.324 3.95 8.324 8.824"/>
                                    <path fill="#393939" d="M21.171 50.7c0 2.183-1.715 3.951-3.832 3.951-2.116 0-3.831-1.768-3.831-3.95 0-2.182 1.715-3.951 3.831-3.951 2.117 0 3.832 1.769 3.832 3.95M39.141 50.7c0 2.183-1.716 3.951-3.832 3.951-2.116 0-3.832-1.768-3.832-3.95 0-2.182 1.716-3.951 3.832-3.951 2.116 0 3.832 1.769 3.832 3.95"/>
                                    <path stroke="#1E1E1E" stroke-linecap="round" stroke-width="1.673" d="M20.919 63.484c0 2.743 2.244 4.967 5.011 4.967 2.768 0 5.012-2.224 5.012-4.967"/>
                                    <path fill="#2F1816" d="M22.432 55.351H30c3.762 0 6.81 3.05 6.81 6.811v1.584H15.623v-1.584c0-3.761 3.049-6.81 6.81-6.81z"/>
                                    <ellipse cx="18.27" cy="63.484" fill="#2F1816" rx="2.649" ry="2.623"/>
                                    <ellipse cx="23.568" cy="63.484" fill="#2F1816" rx="2.649" ry="2.623"/>
                                    <ellipse cx="28.865" cy="63.484" fill="#2F1816" rx="2.649" ry="2.623"/>
                                    <ellipse cx="34.162" cy="63.484" fill="#2F1816" rx="2.649" ry="2.623"/>
                                    <path stroke="#1E8DDD" stroke-linecap="round" stroke-linejoin="round" stroke-width="5.802" d="M3.766 109.081c-5.02 17.716-2.918 31.674 6.306 41.874M48.414 109.081c5.02 17.716 2.918 31.674-6.306 41.874"/>
                                </g>
                            </g>
                        </g>
                    </g>
                </g>
                <g>
                    <g>
                        <g>
                            <path stroke="#FEDA45" stroke-width="11.351" d="M6.471 0L5.278 48.497" transform="translate(35 53) translate(29 98) translate(16.195 .748)"/>
                            <path fill="#66312C" d="M0 52.728l.276-8.463h10.228c4.656 0 8.43 3.79 8.43 8.463H0z" transform="translate(35 53) translate(29 98) translate(16.195 .748)"/>
                        </g>
                        <g>
                            <path stroke="#FEDA45" stroke-width="11.351" d="M6.471 0L5.278 48.497" transform="translate(35 53) translate(29 98) translate(.85 .748)"/>
                            <path fill="#66312C" d="M0 52.728l.08-8.463h10.424c4.656 0 8.43 3.79 8.43 8.463H0z" transform="translate(35 53) translate(29 98) translate(.85 .748)"/>
                        </g>
                    </g>
                    <g transform="translate(35 53) translate(3.994)">
                        <ellipse cx="39.963" cy="30.238" fill="#1E1E1E" rx="26.902" ry="26.89"/>
                        <path fill="#66312C" d="M47.54.491C7.566-2.869 4.753 20.094 5.742 36.305c.989 16.212 9.113 18.392 6.93 22.19C10.489 62.293-3.5 60.654.824 77.28s15.889 23.032 41.538 16.625C68.012 87.496 87.515 3.853 47.54.49z"/>
                        <path fill="#FFF" d="M62.849 48.243L60.53 50.956 62.886 53.506 65.259 50.875zM20.556 48.138L18.288 50.847 20.592 53.393 22.913 50.766z"/>
                    </g>
                    <g>
                        <path fill="#FEDA45" d="M47.058.08L3.51 73.87c-.236.4-.103.916.297 1.152.13.076.277.116.427.116h80.354c.464 0 .84-.376.84-.84 0-.135-.032-.268-.094-.388L47.058.08z" transform="translate(35 53) translate(0 49.19)"/>
                        <path fill="#FE8645" d="M35.6 19.833h21.647L85.333 73.91c.214.412.053.92-.359 1.134-.12.062-.253.094-.387.094H1.729c-.464 0-.84-.376-.84-.84 0-.161.045-.319.132-.454l34.578-54.011z" transform="translate(35 53) translate(0 49.19)"/>
                        <g fill="#FEC045" transform="translate(35 53) translate(0 49.19) translate(8.098 24.77)">
                            <ellipse cx="1.356" cy="45.656" rx="1.356" ry="1.354"/>
                            <ellipse cx="14.424" cy="37.288" rx="1.356" ry="1.354"/>
                            <ellipse cx="14.424" cy="19.321" rx="1.356" ry="1.354"/>
                            <ellipse cx="24.04" cy="45.656" rx="1.356" ry="1.354"/>
                            <ellipse cx="24.04" cy="27.689" rx="1.356" ry="1.354"/>
                            <ellipse cx="36.614" cy="37.288" rx="1.356" ry="1.354"/>
                            <ellipse cx="36.614" cy="19.321" rx="1.356" ry="1.354"/>
                            <ellipse cx="48.203" cy="45.656" rx="1.356" ry="1.354"/>
                            <ellipse cx="48.203" cy="27.689" rx="1.356" ry="1.354"/>
                            <ellipse cx="60.777" cy="37.288" rx="1.356" ry="1.354"/>
                            <ellipse cx="59.791" cy="19.321" rx="1.356" ry="1.354"/>
                            <ellipse cx="72.366" cy="45.656" rx="1.356" ry="1.354"/>
                            <ellipse cx="24.04" cy="9.722" rx="1.356" ry="1.354"/>
                            <ellipse cx="36.614" cy="1.354" rx="1.356" ry="1.354"/>
                            <ellipse cx="48.203" cy="9.722" rx="1.356" ry="1.354"/>
                        </g>
                    </g>
                    <g>
                        <g transform="translate(35 53) translate(19.67 8.75) translate(.667 .74)">
                            <mask id="716u6tscyd" fill="#fff">
                                <use xlink:href="#aiusf2hm8c"/>
                            </mask>
                            <use fill="#FEDA45" xlink:href="#aiusf2hm8c"/>
                            <ellipse cx="12.049" cy="31.239" fill="#FEC045" mask="url(#716u6tscyd)" rx="5.531" ry="5.536"/>
                            <ellipse cx="51.556" cy="31.239" fill="#FEC045" mask="url(#716u6tscyd)" rx="5.531" ry="5.536"/>
                        </g>
                        <g>
                            <path fill="#FFF" d="M17.803 9.223c0 5.094-3.381 9.224-7.553 9.224-4.17 0-7.552-4.13-7.552-9.224S6.079 0 10.25 0c4.172 0 7.553 4.13 7.553 9.223" transform="translate(35 53) translate(19.67 8.75) translate(14.691 11.356)"/>
                            <path stroke="#1E1E1E" stroke-linecap="round" stroke-width="1.394" d="M14.09 10.688c0-1.31-1.06-2.372-2.37-2.372-1.309 0-2.37 1.062-2.37 2.372" transform="translate(35 53) translate(19.67 8.75) translate(14.691 11.356)"/>
                            <path fill="#FFF" d="M32.154 9.223c0 5.094-3.381 9.224-7.553 9.224-4.171 0-7.553-4.13-7.553-9.224S20.43 0 24.601 0c4.172 0 7.553 4.13 7.553 9.223" transform="translate(35 53) translate(19.67 8.75) translate(14.691 11.356)"/>
                            <path stroke="#1E1E1E" stroke-linecap="round" stroke-width="1.394" d="M30.09 10.688c0-1.31-1.06-2.372-2.37-2.372-1.309 0-2.37 1.062-2.37 2.372" transform="translate(35 53) translate(19.67 8.75) translate(14.691 11.356)"/>
                            <path fill="#1E1E1E" d="M24.601 17.669c-3.347 0-6.184-2.35-7.175-6.032-.991 3.683-3.828 6.032-7.176 6.032-4.107 0-7.446-3.693-7.548-8.679-.001.078-.005.155-.005.233 0 5.094 3.382 9.224 7.553 9.224 3.348 0 6.185-2.66 7.176-6.343.99 3.682 3.828 6.343 7.175 6.343 4.171 0 7.553-4.13 7.553-9.224 0-.078-.003-.155-.005-.233-.102 4.986-3.44 8.679-7.548 8.679" transform="translate(35 53) translate(19.67 8.75) translate(14.691 11.356)"/>
                            <path stroke="#1E1E1E" stroke-linecap="round" stroke-width="1.394" d="M13.471 19.375c0 2.198 1.781 3.98 3.978 3.98 2.196 0 3.977-1.782 3.977-3.98" transform="translate(35 53) translate(19.67 8.75) translate(14.691 11.356)"/>
                            <path fill="#66312C" d="M2.695 10.839S.155 12.663 0 9.552M32.021 11.377s2.54 2.22 2.696-.892" transform="translate(35 53) translate(19.67 8.75) translate(14.691 11.356)"/>
                        </g>
                    </g>
                    <g stroke="#1E1E1E" stroke-linecap="round" stroke-linejoin="round" stroke-width=".752">
                        <path d="M5.526 29.233S28.13 27.372 15.49 0M2.763 34.264L5.723 29.156 3.508 25.403" transform="translate(35 53) translate(47.718 59.7)"/>
                        <path d="M1.063 32.689L5.92 29.243 0 28.554" transform="translate(35 53) translate(47.718 59.7)"/>
                    </g>
                    <g stroke="#1E1E1E" stroke-linecap="round" stroke-linejoin="round" stroke-width=".752">
                        <path d="M5.526 29.233S28.13 27.372 15.49 0M2.763 34.264L5.723 29.156 3.508 25.403" transform="translate(35 53) matrix(-1 0 0 1 43.934 59.7)"/>
                        <path d="M1.063 32.689L5.92 29.243 0 28.554" transform="translate(35 53) matrix(-1 0 0 1 43.934 59.7)"/>
                    </g>
                </g>
            </g>
        </g>
    </g>
</svg>
