<svg xmlns="http://www.w3.org/2000/svg" xmlns:xlink="http://www.w3.org/1999/xlink" width="83" height="80" viewBox="0 0 83 80">
    <defs>
        <path id="pnm5buanwa" d="M0 0.086L76.347 0.086 76.347 73.751 0 73.751z"/>
        <path id="izit185lyc" d="M0.044 0.308L38.361 0.308 38.361 73.794 0.044 73.794z"/>
    </defs>
    <g fill="none" fill-rule="evenodd">
        <g>
            <g>
                <g transform="translate(-140 -178) rotate(-3 3563.945 -2592.662) translate(.537 .125)">
                    <mask id="qodu8d1ucb" fill="#fff">
                        <use xlink:href="#pnm5buanwa"/>
                    </mask>
                    <path fill="#9D7DEF" d="M1.886 32.615C.86 31.477.146 30.06.033 28.482c-.384-3.858 2.568-7.242 6.444-7.624l14.208-1.304c2.283-.173 4.433-1.533 5.53-3.54L33.21 3.695c.765-1.336 2.011-2.45 3.429-3.062 3.639-1.478 7.803.123 9.287 3.745l5.624 12.993c.874 2.113 2.864 3.696 5.116 4.112L70.649 24.3c1.47.275 2.905 1.14 3.93 2.277 2.611 2.895 2.274 7.304-.636 9.904L63.26 45.746c-1.76 1.48-2.676 3.792-2.405 6.069l1.612 14.058c.411 3.367-1.643 6.602-4.959 7.605-.7.16-1.598.308-2.387.265-1.085-.058-2.257-.317-3.21-.958-9.676-5.734-21.504-6.369-31.741-1.703-1.419.612-2.913.827-4.474.448-3.808-.892-6.272-4.666-5.375-8.454l3.12-13.804c.518-2.235-.149-4.534-1.735-6.291L1.886 32.615z" mask="url(#qodu8d1ucb)"/>
                </g>
                <path fill="#FFF" d="M26.01 46.444c-4.696-.023-8.48-4.52-8.455-10.042.026-5.523 3.852-9.98 8.546-9.958 4.695.024 8.48 4.52 8.454 10.044-.025 5.522-3.852 9.98-8.546 9.956" transform="translate(-140 -178) rotate(-3 3563.945 -2592.662)"/>
                <path fill="#1E1E1E" d="M31.547 36.738c-.12 2.206-2.003 3.897-4.21 3.779-2.205-.12-3.897-2.004-3.779-4.21.12-2.205 2.004-3.897 4.21-3.778 2.205.119 3.898 2.003 3.779 4.209" transform="translate(-140 -178) rotate(-3 3563.945 -2592.662)"/>
                <path fill="#FFF" d="M44.947 47.35c-4.668.469-8.861-3.612-9.367-9.114-.507-5.503 2.866-10.343 7.533-10.813 4.666-.47 8.86 3.61 9.366 9.114.508 5.503-2.865 10.343-7.532 10.813" transform="translate(-140 -178) rotate(-3 3563.945 -2592.662)"/>
                <path fill="#1E1E1E" d="M46.526 37.523c-.118 2.205-2.003 3.898-4.21 3.779-2.206-.12-3.897-2.003-3.778-4.21.118-2.206 2.003-3.897 4.21-3.778 2.206.119 3.897 2.003 3.778 4.21M26.79 47.895l-.033.598c-.02 4.1 3.305 7.38 7.407 7.402 4.202.026 7.577-3.194 7.593-7.193l-14.968-.807z" transform="translate(-140 -178) rotate(-3 3563.945 -2592.662)"/>
                <path fill="#FFF" d="M36.823 49.73c-.01.174-.1.256-.274.247l-1.39-.075c-.173-.009-.256-.101-.246-.275l.089-1.65 1.91.104-.09 1.65M33.827 49.573c-.01.174-.101.255-.274.247l-1.389-.076c-.174-.009-.256-.1-.247-.274l.089-1.65 1.91.104-.09 1.649" transform="translate(-140 -178) rotate(-3 3563.945 -2592.662)"/>
                <g transform="translate(-140 -178) rotate(-3 3563.945 -2592.662) translate(37.565 .068)">
                    <mask id="fhdililf0d" fill="#fff">
                        <use xlink:href="#izit185lyc"/>
                    </mask>
                    <path fill="#8E65EF" d="M8.55 4.695l5.51 12.994c.857 2.112 2.807 3.695 5.014 4.111l13.703 2.816c1.439.276 2.845 1.14 3.85 2.277 2.56 2.895 2.23 7.304-.622 9.903l-10.47 9.266c-1.725 1.48-2.622 3.791-2.356 6.07l1.579 14.056c.403 3.368-1.61 6.604-4.86 7.606C22.58 23.27 6.178 20.209.044.686c3.454-1.188 7.143.49 8.506 4.009" mask="url(#fhdililf0d)"/>
                </g>
                <path stroke="#1E1E1E" stroke-linecap="round" d="M18.137 27.224s.236-2.071 2.867-3.333c2.632-1.261 5.133-.347 5.133-.347M47.097 24.891s2.377-.633 4.447.504c2.07 1.136 2.553 3.32 2.553 3.32" transform="translate(-140 -178) rotate(-3 3563.945 -2592.662)"/>
            </g>
        </g>
    </g>
</svg>
