<svg xmlns="http://www.w3.org/2000/svg" width="70" height="70" viewBox="0 0 70 70">
    <defs>
        <style>
            .cls-3{fill:#6979d4}
        </style>
    </defs>
    <g id="Group_379" transform="translate(-144 -81)">
        <circle id="Ellipse_2" cx="35" cy="35" r="35" fill="#4153b9" opacity="0.14" transform="translate(144 81)"/>
        <circle id="Ellipse_1" cx="27" cy="27" r="27" fill="#4153b9" opacity="0.19" transform="translate(152 89)"/>
        <g id="check_1_" transform="translate(159.915 96.914)">
            <g id="Group_378">
                <circle id="Ellipse_3" cx="17.607" cy="17.607" r="17.607" class="cls-3" transform="translate(1.478 1.478)"/>
                <path id="Path_7" d="M19.086 38.171a19.086 19.086 0 1 1 19.085-19.085 19.107 19.107 0 0 1-19.085 19.085zm0-35.214a16.129 16.129 0 1 0 16.128 16.129A16.147 16.147 0 0 0 19.086 2.957z" class="cls-3"/>
            </g>
            <path id="Path_8" fill="#fff" d="M139 175.868a1.477 1.477 0 0 1-1.054-.442l-5.455-5.544a1.478 1.478 0 1 1 2.108-2.073l4.358 4.429 9.016-9.93a1.478 1.478 0 1 1 2.188 1.988l-10.068 11.088a1.478 1.478 0 0 1-1.064.485z" transform="translate(-122.221 -149.76)"/>
        </g>
    </g>
</svg>
