<svg width="312" height="397" xmlns="http://www.w3.org/2000/svg" xmlns:xlink="http://www.w3.org/1999/xlink">
    <defs>
        <rect id="a" x="0" y="0" width="312" height="550" rx="16"/>
        <rect id="e" x="0" y="0" width="114.541" height="42" rx="4.62"/>
        <rect id="g" x="0" y="0" width="121" height="38" rx="4.2"/>
        <rect id="n" x="0" y="0" width="95.854" height="30" rx="3.36"/>
        <rect id="p" x="38.4" y="0" width="89.6" height="30" rx="3.36"/>
        <radialGradient cx="51.412%" cy="109.685%" fx="51.412%" fy="109.685%" r="100%" gradientTransform="matrix(0 1 -.44397 0 1.001 .583)" id="b">
            <stop stop-color="#CEEFFA" offset="0%"/>
            <stop stop-color="#A0DBF4" offset="100%"/>
        </radialGradient>
        <radialGradient cx="51.412%" cy="109.685%" fx="51.412%" fy="109.685%" r="100%" gradientTransform="matrix(0 1 -.45795 0 1.016 .583)" id="d">
            <stop stop-color="#CEEFFA" offset="0%"/>
            <stop stop-color="#A0DBF4" offset="100%"/>
        </radialGradient>
        <path d="M18.931 2.2.386 41.549c-1.326 2.813.954 6.028 3.987 5.619l46.654-6.298c3.024-.408 4.369-4.094 2.358-6.459L25.275 1.361A3.79 3.79 0 0 0 22.37 0c-1.39 0-2.76.763-3.438 2.2" id="j"/>
        <path d="M0 .951a3.735 3.735 0 0 0 4.184 3.22A3.729 3.729 0 0 0 7.414 0" id="l"/>
        <linearGradient x1="28.283%" y1="36.565%" x2="37.112%" y2="58.68%" id="i">
            <stop stop-color="#7ED6C1" offset="0%"/>
            <stop stop-color="#399C84" offset="100%"/>
        </linearGradient>
    </defs>
    <g transform="translate(0 -153)" fill="none" fill-rule="evenodd">
        <mask id="c" fill="#fff">
            <use xlink:href="#a"/>
        </mask>
        <path d="M187 305c1.084-4.25 5.297-7.42 10.336-7.42.925 0 1.823.107 2.679.308 2.485-4.799 7.88-8.124 14.14-8.124 1.618 0 3.179.223 4.649.635 3.368-5.033 9.491-8.399 16.481-8.399 8.32 0 15.406 4.764 18.092 11.434a14.268 14.268 0 0 1 6.419-1.503c7.293 0 13.204 5.334 13.204 11.913 0 .39-.019.776-.06 1.156H187z" fill="url(#b)" opacity=".2" mask="url(#c)" transform="matrix(-1 0 0 1 460 0)"/>
        <path d="M244 247c1.824-7.39 8.93-12.905 17.426-12.905 1.562 0 3.074.187 4.514.536 4.194-8.345 13.293-14.127 23.846-14.127 2.73 0 5.361.387 7.835 1.104 5.681-8.754 16.001-14.608 27.79-14.608 14.029 0 25.975 8.286 30.503 19.885 3.203-1.663 6.895-2.614 10.823-2.614 12.295 0 22.263 9.276 22.263 20.719 0 .678-.04 1.348-.108 2.01H244z" fill="url(#d)" opacity=".4" mask="url(#c)"/>
        <path d="M36.052 474c.029-51.067 30.81-48.392 35.599-102.76 4.788-54.369-41.32-78.318-37.416-122.635 3.03-34.411 34.018-53.574 25.532-94.605" stroke="#4153B9" stroke-width="1.316" opacity=".35" stroke-linecap="round" stroke-dasharray="3.290620180694777,8.050000000000001" mask="url(#c)" transform="matrix(-1 0 0 1 106 0)"/>
        <g mask="url(#c)">
            <g transform="translate(17 360)">
                <rect fill="#E7EBFF" width="41.8" height="41.8" rx="6.6"/>
                <path d="M16.83 30.923c1.263 0 2.225-.472 2.888-1.417.662-.944.993-2.325.993-4.142 0-1.817-.331-3.196-.993-4.135-.663-.94-1.625-1.41-2.888-1.41s-2.225.473-2.887 1.418c-.663.944-.994 2.325-.994 4.142 0 1.807.331 3.183.994 4.127.662.945 1.624 1.417 2.887 1.417zm0-1.278c-.79 0-1.37-.346-1.74-1.04-.37-.692-.555-1.773-.555-3.241 0-1.479.185-2.56.555-3.242.37-.683.95-1.024 1.74-1.024s1.37.341 1.74 1.024c.37.683.555 1.763.555 3.242 0 1.478-.185 2.561-.555 3.25-.37.687-.95 1.031-1.74 1.031zM29.088 30.8c.493 0 .74-.22.74-.662 0-.206-.062-.365-.185-.478-.123-.113-.308-.169-.555-.169h-1.786v-8.824c0-.247-.072-.442-.216-.585a.75.75 0 0 0-.554-.216c-.216 0-.441.072-.678.216l-2.371 1.509a.628.628 0 0 0-.308.554c0 .195.064.37.192.524.129.154.28.23.455.23.102 0 .205-.03.308-.092l1.586-1v7.684h-1.771c-.247 0-.434.056-.562.17-.129.112-.193.271-.193.477 0 .441.252.662.755.662h5.143z" fill="#212A39" fill-rule="nonzero"/>
                <path d="M16.592 14.353a.595.595 0 0 0 .44-.167c.112-.112.168-.264.168-.458V8.73c0-.2-.06-.363-.18-.489a.62.62 0 0 0-.472-.189c-.264 0-.475.15-.633.449l-1.778 3.388L12.351 8.5c-.147-.3-.361-.449-.643-.449a.62.62 0 0 0-.47.19.679.679 0 0 0-.18.488v4.998c0 .194.055.346.166.458a.584.584 0 0 0 .432.167.587.587 0 0 0 .44-.172.622.622 0 0 0 .167-.453v-3.062l1.25 2.305a.952.952 0 0 0 .272.335c.1.07.214.105.343.105.135 0 .251-.035.348-.105a.978.978 0 0 0 .268-.335l1.25-2.35v3.107c0 .194.056.346.167.458a.584.584 0 0 0 .431.167zm4.708.026c.616 0 1.152-.13 1.606-.391.455-.261.806-.631 1.052-1.11.246-.477.37-1.04.37-1.684 0-.646-.124-1.207-.37-1.686a2.619 2.619 0 0 0-1.052-1.104c-.454-.258-.99-.387-1.606-.387-.616 0-1.15.129-1.606.387a2.619 2.619 0 0 0-1.051 1.104c-.247.479-.37 1.04-.37 1.686 0 .645.123 1.207.37 1.685.246.478.597.848 1.051 1.109.455.26.99.391 1.606.391zm0-1.065c-.516 0-.92-.181-1.214-.545-.293-.364-.44-.889-.44-1.575 0-.687.145-1.21.436-1.571.29-.361.696-.541 1.218-.541.523 0 .93.18 1.224.54.293.362.44.885.44 1.572 0 .686-.149 1.211-.445 1.575-.296.364-.702.545-1.219.545zm8.81 1.039a.62.62 0 0 0 .47-.19.69.69 0 0 0 .18-.497V8.73c0-.2-.06-.363-.18-.489a.62.62 0 0 0-.47-.189.596.596 0 0 0-.458.19.689.689 0 0 0-.176.488v3.3l-2.948-3.75c-.118-.152-.285-.228-.502-.228a.62.62 0 0 0-.47.19.679.679 0 0 0-.181.488v4.936a.7.7 0 0 0 .176.498c.117.126.273.189.466.189a.593.593 0 0 0 .462-.19.712.712 0 0 0 .172-.497V10.35l2.948 3.775c.129.153.299.229.51.229z" fill="#8FA0FF" fill-rule="nonzero"/>
            </g>
            <g transform="translate(65.46 360)">
                <mask id="f" fill="#fff">
                    <use xlink:href="#e"/>
                </mask>
                <use fill="#FCAB64" xlink:href="#e"/>
                <path d="M12.577 33.434a.554.554 0 0 0 .419-.16.573.573 0 0 0 .154-.415v-6.322h2.203c.352 0 .528-.158.528-.475 0-.155-.045-.273-.137-.354-.092-.08-.222-.121-.391-.121H9.802c-.169 0-.3.04-.391.121-.092.081-.138.2-.138.354 0 .317.177.475.529.475h2.203v6.322c0 .17.053.308.16.415.106.107.244.16.412.16zm5.595.022c.529 0 .993-.114 1.394-.342.4-.229.708-.555.925-.978.216-.424.325-.916.325-1.476 0-.567-.109-1.063-.325-1.487a2.308 2.308 0 0 0-.925-.978c-.4-.228-.865-.342-1.394-.342-.528 0-.993.114-1.393.342-.4.229-.708.555-.925.978-.217.424-.325.92-.325 1.487 0 .56.108 1.052.325 1.476.217.423.525.75.925.978.4.228.865.342 1.393.342zm0-.884c-.492 0-.868-.162-1.129-.486-.26-.324-.39-.8-.39-1.426 0-.619.132-1.092.396-1.42.264-.328.639-.492 1.123-.492.485 0 .86.164 1.124.492.264.328.396.801.396 1.42 0 .626-.13 1.102-.39 1.426-.261.324-.638.486-1.13.486zm5.959.884c.403 0 .76-.086 1.068-.26.308-.173.543-.421.705-.745v.442c0 .17.05.302.148.398.1.095.234.143.402.143a.554.554 0 0 0 .402-.143.527.527 0 0 0 .15-.398v-6.83a.503.503 0 0 0-.155-.388.574.574 0 0 0-.408-.143.567.567 0 0 0-.402.138.481.481 0 0 0-.148.37v2.807a1.73 1.73 0 0 0-.7-.735 2.114 2.114 0 0 0-1.062-.26c-.47 0-.885.115-1.245.343a2.3 2.3 0 0 0-.842.973c-.202.42-.303.91-.303 1.47 0 .553.1 1.043.303 1.47.201.427.484.759.848.995.363.235.776.353 1.239.353zm.264-.884c-.477 0-.852-.171-1.123-.514-.272-.342-.408-.816-.408-1.42s.134-1.07.402-1.398c.268-.328.644-.492 1.129-.492s.857.166 1.118.497c.26.332.39.803.39 1.415s-.131 1.083-.396 1.415c-.264.331-.635.497-1.112.497zm5.881.884c.367 0 .688-.083.964-.248.275-.166.483-.404.622-.713v.409c0 .162.048.29.143.387a.52.52 0 0 0 .386.143.547.547 0 0 0 .396-.138c.096-.092.143-.223.143-.392V30.04c0-.737-.174-1.286-.523-1.647-.348-.36-.879-.541-1.591-.541-.323 0-.657.042-1.002.127a3.757 3.757 0 0 0-.904.337.987.987 0 0 0-.302.249.48.48 0 0 0-.094.292c0 .126.035.229.105.31a.34.34 0 0 0 .27.121c.08 0 .22-.055.418-.165.272-.126.521-.221.749-.288.227-.066.47-.1.727-.1.374 0 .646.093.815.277.169.184.253.483.253.895v.32h-.253c-.823 0-1.465.05-1.928.15-.462.1-.796.262-1.002.486-.205.225-.305.537-.297.934 0 .317.084.6.253.851.169.251.398.448.688.592.29.143.612.215.964.215zm.198-.829c-.286 0-.525-.084-.715-.254a.833.833 0 0 1-.287-.652c0-.228.066-.403.198-.525.133-.122.353-.208.661-.26.309-.051.75-.077 1.322-.077h.198v.287c0 .435-.128.79-.385 1.067-.257.276-.588.414-.992.414zm5.22 2.797a.484.484 0 0 0 .27-.083.518.518 0 0 0 .193-.238l3.062-6.52a.513.513 0 0 0 .044-.21.446.446 0 0 0-.16-.344.535.535 0 0 0-.638-.066.482.482 0 0 0-.193.243l-1.696 3.791-1.707-3.802a.488.488 0 0 0-.474-.31.611.611 0 0 0-.396.144.44.44 0 0 0-.177.354c0 .074.015.14.045.2l2.125 4.53-.76 1.625a.603.603 0 0 0-.055.221c0 .133.053.244.16.332a.546.546 0 0 0 .358.133zM11.225 18.432c.273 0 .489-.085.648-.254.16-.17.24-.392.24-.665v-3.509h3.75c.573 0 .86-.24.86-.721 0-.49-.287-.736-.86-.736h-3.75V9.83h4.032c.573 0 .86-.24.86-.722 0-.49-.287-.736-.86-.736h-4.948c-.273 0-.487.076-.642.227-.155.15-.232.363-.232.636v8.277c0 .273.082.495.246.665.165.17.383.254.656.254zm9.924.029c.705 0 1.323-.147 1.854-.439.531-.292.94-.712 1.227-1.26.286-.546.43-1.183.43-1.909s-.144-1.36-.43-1.903a2.996 2.996 0 0 0-1.227-1.252c-.53-.292-1.149-.438-1.854-.438-.704 0-1.322.146-1.853.438a3.04 3.04 0 0 0-1.234 1.252c-.291.542-.437 1.177-.437 1.903s.146 1.363.437 1.91a3.03 3.03 0 0 0 1.234 1.259c.53.292 1.149.439 1.853.439zm-.014-1.373c-.564 0-.996-.188-1.297-.566-.3-.377-.45-.933-.45-1.669 0-.726.152-1.28.457-1.662.306-.382.74-.573 1.304-.573.564 0 .997.19 1.297.573.301.382.452.936.452 1.662 0 .736-.15 1.292-.452 1.67-.3.377-.737.565-1.31.565zm5.85 1.344a.936.936 0 0 0 .635-.219c.17-.146.254-.356.254-.63V9.137c0-.273-.085-.48-.254-.622a.955.955 0 0 0-.634-.212.928.928 0 0 0-.628.212c-.164.141-.246.349-.246.622v8.446c0 .274.082.484.246.63a.91.91 0 0 0 .628.22zm8.346-.014a.714.714 0 0 0 .543-.255.836.836 0 0 0 .233-.58c0-.226-.094-.429-.282-.608l-2.453-2.207 2.213-2.065c.179-.18.268-.378.268-.595a.776.776 0 0 0-.24-.566.77.77 0 0 0-.564-.24.795.795 0 0 0-.578.255l-3.016 2.9v-5.32c0-.273-.085-.48-.254-.622a.955.955 0 0 0-.635-.212.928.928 0 0 0-.627.212c-.164.141-.247.349-.247.622v8.446c0 .274.083.481.247.623a.928.928 0 0 0 .627.212c.254 0 .466-.07.635-.212.169-.142.254-.35.254-.623v-2.419l3.298 3c.179.17.372.254.578.254zm9.558-.07c1.626 0 2.888-.437 3.785-1.31.898-.872 1.347-2.1 1.347-3.685 0-1.575-.449-2.798-1.347-3.67-.897-.873-2.159-1.31-3.785-1.31H42.1c-.273 0-.487.076-.642.227-.155.15-.233.363-.233.636v8.248c0 .274.078.486.233.637.155.15.369.226.641.226h2.791zm-.112-1.486h-1.734V9.859h1.734c2.283 0 3.425 1.165 3.425 3.494 0 2.34-1.142 3.509-3.425 3.509zm9.12 1.599c.452 0 .849-.104 1.192-.312.343-.207.594-.495.754-.863v.312c0 .245.077.443.233.594.155.15.354.226.599.226.263 0 .47-.073.62-.22.15-.145.225-.346.225-.6v-3.452c0-.972-.232-1.696-.697-2.172-.466-.476-1.177-.714-2.136-.714-.442 0-.89.051-1.346.155a4.585 4.585 0 0 0-1.177.425c-.188.103-.322.214-.402.332a.726.726 0 0 0-.12.417.7.7 0 0 0 .162.481.53.53 0 0 0 .416.184c.113 0 .291-.061.536-.184.385-.15.719-.266 1-.346.282-.08.56-.12.832-.12.442 0 .762.106.959.318.197.212.296.55.296 1.011v.326h-.353c-1.024 0-1.827.066-2.41.198-.583.132-1.003.344-1.262.636-.258.293-.388.694-.388 1.203 0 .406.109.773.325 1.103.216.33.512.59.888.779.376.188.794.283 1.254.283zm.353-1.274c-.31 0-.571-.096-.782-.29a.961.961 0 0 1-.318-.742c0-.246.076-.439.226-.58.15-.142.4-.241.747-.298.348-.056.836-.084 1.466-.084h.254v.297c0 .5-.148.907-.444 1.223-.296.316-.68.474-1.15.474zm10.643 1.245c.273 0 .487-.075.642-.226.155-.151.232-.359.232-.623v-3.48c0-.952-.202-1.665-.606-2.136-.404-.472-1.02-.707-1.847-.707-.498 0-.944.103-1.339.31-.394.208-.71.505-.944.892v-.382a.751.751 0 0 0-.233-.573.838.838 0 0 0-.599-.22c-.273 0-.489.076-.648.227a.78.78 0 0 0-.24.594v5.475c0 .264.077.472.232.623.156.15.37.226.642.226s.489-.075.648-.226c.16-.151.24-.359.24-.623V14.43c0-.538.153-.967.458-1.288.306-.32.712-.48 1.22-.48.432 0 .75.122.951.367.202.245.303.637.303 1.174v3.381c0 .264.08.472.24.623.16.15.376.226.648.226zm5.724.029a4.35 4.35 0 0 0 1.184-.163 3.7 3.7 0 0 0 1.015-.446c.16-.094.275-.2.345-.318a.798.798 0 0 0 .106-.417.779.779 0 0 0-.155-.496.468.468 0 0 0-.38-.198.811.811 0 0 0-.31.064 2.787 2.787 0 0 0-.367.191c-.226.123-.43.22-.613.29-.184.07-.393.106-.628.106-.582 0-1.031-.19-1.346-.573-.315-.382-.472-.927-.472-1.634 0-.717.157-1.266.472-1.648.315-.382.764-.573 1.346-.573.245 0 .46.035.649.106.188.07.385.167.592.29.113.066.225.123.338.17a.84.84 0 0 0 .324.07c.16 0 .29-.063.388-.19.099-.128.148-.295.148-.503 0-.301-.15-.551-.451-.75a3.644 3.644 0 0 0-.98-.424 4.096 4.096 0 0 0-1.106-.155c-.696 0-1.311.15-1.847.452a3.143 3.143 0 0 0-1.248 1.28c-.296.552-.444 1.187-.444 1.903 0 .717.141 1.344.423 1.882.282.538.684.953 1.205 1.245.522.292 1.126.439 1.812.439zm7.049 0a4.46 4.46 0 0 0 1.156-.163 4.703 4.703 0 0 0 1.085-.432c.348-.198.522-.443.522-.735 0-.208-.05-.373-.148-.495a.474.474 0 0 0-.388-.184c-.132 0-.338.075-.62.226a7.846 7.846 0 0 1-.783.311c-.23.076-.496.113-.796.113-.592 0-1.043-.153-1.354-.46-.31-.306-.493-.785-.55-1.435h4.16c.356 0 .535-.203.535-.609 0-.679-.127-1.268-.38-1.768-.254-.5-.612-.887-1.072-1.16-.46-.274-1-.41-1.621-.41-.649 0-1.229.15-1.741.452-.512.302-.91.726-1.191 1.274-.282.547-.423 1.174-.423 1.881 0 1.113.324 1.99.972 2.632.649.64 1.528.962 2.637.962zm1.31-4.202h-3.185c.056-.566.228-1 .514-1.302.287-.302.67-.452 1.15-.452.469 0 .836.148 1.099.445.263.297.404.733.423 1.309z" fill="#FFF" fill-rule="nonzero" mask="url(#f)"/>
            </g>
        </g>
        <g mask="url(#c)">
            <g transform="translate(34 281.188)">
                <rect fill="#E7EBFF" width="38" height="38" rx="6"/>
                <path d="M15.3 28.112c1.148 0 2.023-.43 2.625-1.288.602-.859.903-2.114.903-3.766 0-1.652-.301-2.905-.903-3.759-.602-.854-1.477-1.281-2.625-1.281s-2.023.43-2.625 1.288c-.602.859-.903 2.114-.903 3.766 0 1.643.301 2.893.903 3.752.602.859 1.477 1.288 2.625 1.288zm0-1.162c-.719 0-1.246-.315-1.582-.945-.336-.63-.504-1.612-.504-2.947 0-1.344.168-2.326.504-2.947.336-.62.863-.931 1.582-.931.719 0 1.246.31 1.582.931.336.62.504 1.603.504 2.947s-.168 2.329-.504 2.954c-.336.625-.863.938-1.582.938zm9.744 1.12c.205 0 .378-.06.518-.182.14-.121.215-.294.224-.518l.112-1.414h.924c.224 0 .399-.051.525-.154a.513.513 0 0 0 .189-.42c0-.383-.215-.574-.644-.574h-.896l.476-6.048c.019-.224-.037-.399-.168-.525a.678.678 0 0 0-.49-.189c-.261 0-.485.112-.672.336l-4.956 6.412a.912.912 0 0 0-.224.574c0 .168.058.308.175.42a.649.649 0 0 0 .469.168h3.878l-.112 1.386c-.01.233.047.413.168.539.121.126.29.189.504.189zm-.476-3.262h-2.982l3.332-4.326-.35 4.326z" fill="#212A39" fill-rule="nonzero"/>
                <path d="M12.96 13.04a.616.616 0 0 0 .456-.168.605.605 0 0 0 .168-.448V8.376h1.296c.395 0 .592-.17.592-.512 0-.336-.197-.504-.592-.504h-3.84c-.395 0-.592.168-.592.504 0 .341.197.512.592.512h1.296v4.048c0 .187.057.336.172.448a.62.62 0 0 0 .452.168zm7.48.008a.598.598 0 0 0 .448-.172.62.62 0 0 0 .168-.452V7.936a.605.605 0 0 0-.168-.448.605.605 0 0 0-.448-.168.592.592 0 0 0-.444.168.614.614 0 0 0-.164.448V9.64h-2.6V7.936a.614.614 0 0 0-.164-.448.592.592 0 0 0-.444-.168.605.605 0 0 0-.448.168.605.605 0 0 0-.168.448v4.488c0 .192.056.344.168.456a.605.605 0 0 0 .448.168.588.588 0 0 0 .44-.172.62.62 0 0 0 .168-.452v-1.792h2.6v1.792c0 .192.055.344.164.456.11.112.257.168.444.168zm4.128.024c.79 0 1.392-.205 1.808-.616.416-.41.624-1.005.624-1.784V7.936a.605.605 0 0 0-.168-.448.605.605 0 0 0-.448-.168.592.592 0 0 0-.444.168.614.614 0 0 0-.164.448v2.792c0 .443-.104.783-.312 1.02-.208.237-.507.356-.896.356-.39 0-.687-.117-.892-.352-.205-.235-.308-.576-.308-1.024V7.936a.614.614 0 0 0-.164-.448.592.592 0 0 0-.444-.168.605.605 0 0 0-.448.168.605.605 0 0 0-.168.448v2.736c0 .784.207 1.38.62 1.788.413.408 1.015.612 1.804.612z" fill="#8FA0FF" fill-rule="nonzero"/>
            </g>
            <g transform="translate(78 281.188)">
                <mask id="h" fill="#fff">
                    <use xlink:href="#g"/>
                </mask>
                <use fill="#2AAAEE" xlink:href="#g"/>
                <path d="M11.42 30.25c.16 0 .287-.048.38-.145a.517.517 0 0 0 .14-.375v-5.72h2c.32 0 .48-.143.48-.43 0-.14-.042-.247-.125-.32-.083-.073-.202-.11-.355-.11H8.9c-.153 0-.272.037-.355.11-.083.073-.125.18-.125.32 0 .287.16.43.48.43h2v5.72c0 .153.048.278.145.375a.507.507 0 0 0 .375.145zm5.08.02c.48 0 .902-.103 1.265-.31.363-.207.643-.502.84-.885.197-.383.295-.828.295-1.335 0-.513-.098-.962-.295-1.345a2.092 2.092 0 0 0-.84-.885c-.363-.207-.785-.31-1.265-.31-.48 0-.902.103-1.265.31a2.092 2.092 0 0 0-.84.885c-.197.383-.295.832-.295 1.345 0 .507.098.952.295 1.335.197.383.477.678.84.885.363.207.785.31 1.265.31zm0-.8c-.447 0-.788-.147-1.025-.44-.237-.293-.355-.723-.355-1.29 0-.56.12-.988.36-1.285.24-.297.58-.445 1.02-.445.44 0 .78.148 1.02.445.24.297.36.725.36 1.285 0 .567-.118.997-.355 1.29-.237.293-.578.44-1.025.44zm10.25.78a.535.535 0 0 0 .37-.125.451.451 0 0 0 .14-.355v-2.6c0-1.313-.547-1.97-1.64-1.97-.367 0-.693.085-.98.255-.287.17-.503.398-.65.685-.12-.32-.302-.557-.545-.71-.243-.153-.552-.23-.925-.23a1.8 1.8 0 0 0-.9.22 1.53 1.53 0 0 0-.61.64v-.37a.447.447 0 0 0-.135-.345.488.488 0 0 0-.345-.125c-.14 0-.26.043-.36.13a.44.44 0 0 0-.15.35v4.07c0 .153.048.272.145.355a.54.54 0 0 0 .365.125.52.52 0 0 0 .36-.125.451.451 0 0 0 .14-.355v-2.35c0-.433.108-.775.325-1.025.217-.25.508-.375.875-.375.313 0 .543.092.69.275.147.183.22.478.22.885v2.59c0 .153.047.272.14.355a.52.52 0 0 0 .36.125.535.535 0 0 0 .37-.125.451.451 0 0 0 .14-.355v-2.35c0-.433.107-.775.32-1.025.213-.25.503-.375.87-.375.313 0 .543.092.69.275.147.183.22.478.22.885v2.59c0 .153.047.272.14.355a.52.52 0 0 0 .36.125zm4.01.02c.48 0 .902-.103 1.265-.31.363-.207.643-.502.84-.885.197-.383.295-.828.295-1.335 0-.513-.098-.962-.295-1.345a2.092 2.092 0 0 0-.84-.885c-.363-.207-.785-.31-1.265-.31-.48 0-.902.103-1.265.31a2.092 2.092 0 0 0-.84.885c-.197.383-.295.832-.295 1.345 0 .507.098.952.295 1.335.197.383.477.678.84.885.363.207.785.31 1.265.31zm0-.8c-.447 0-.788-.147-1.025-.44-.237-.293-.355-.723-.355-1.29 0-.56.12-.988.36-1.285.24-.297.58-.445 1.02-.445.44 0 .78.148 1.02.445.24.297.36.725.36 1.285 0 .567-.118.997-.355 1.29-.237.293-.578.44-1.025.44zm4.03.78c.147 0 .267-.04.36-.12.093-.08.14-.2.14-.36v-2.29c0-.36.102-.667.305-.92s.515-.4.935-.44l.3-.03c.18-.013.307-.057.38-.13.073-.073.11-.183.11-.33 0-.293-.16-.43-.48-.41l-.14.01c-.32.027-.607.117-.86.27a1.469 1.469 0 0 0-.58.67v-.48a.447.447 0 0 0-.135-.345.474.474 0 0 0-.335-.125.54.54 0 0 0-.365.125.443.443 0 0 0-.145.355v4.07c0 .16.048.28.145.36.097.08.218.12.365.12zm3.66 0c.147 0 .267-.04.36-.12.093-.08.14-.2.14-.36v-2.29c0-.36.102-.667.305-.92s.515-.4.935-.44l.3-.03c.18-.013.307-.057.38-.13.073-.073.11-.183.11-.33 0-.293-.16-.43-.48-.41l-.14.01c-.32.027-.607.117-.86.27a1.469 1.469 0 0 0-.58.67v-.48a.447.447 0 0 0-.135-.345.474.474 0 0 0-.335-.125.54.54 0 0 0-.365.125.443.443 0 0 0-.145.355v4.07c0 .16.048.28.145.36.097.08.218.12.365.12zm5.17.02c.48 0 .902-.103 1.265-.31.363-.207.643-.502.84-.885.197-.383.295-.828.295-1.335 0-.513-.098-.962-.295-1.345a2.092 2.092 0 0 0-.84-.885c-.363-.207-.785-.31-1.265-.31-.48 0-.902.103-1.265.31a2.092 2.092 0 0 0-.84.885c-.197.383-.295.832-.295 1.345 0 .507.098.952.295 1.335.197.383.477.678.84.885.363.207.785.31 1.265.31zm0-.8c-.447 0-.788-.147-1.025-.44-.237-.293-.355-.723-.355-1.29 0-.56.12-.988.36-1.285.24-.297.58-.445 1.02-.445.44 0 .78.148 1.02.445.24.297.36.725.36 1.285 0 .567-.118.997-.355 1.29-.237.293-.578.44-1.025.44zm8.78.77a.586.586 0 0 0 .31-.085.47.47 0 0 0 .2-.245l1.66-4.05a.397.397 0 0 0 .04-.18.407.407 0 0 0-.15-.32.505.505 0 0 0-.34-.13c-.2 0-.337.1-.41.3l-1.29 3.38-1.32-3.36a.46.46 0 0 0-.19-.24.508.508 0 0 0-.55 0 .46.46 0 0 0-.19.24l-1.32 3.38-1.29-3.41c-.073-.193-.21-.29-.41-.29a.576.576 0 0 0-.365.13.403.403 0 0 0-.125.5l1.65 4.05a.515.515 0 0 0 .215.245.594.594 0 0 0 .61 0 .478.478 0 0 0 .195-.245l1.27-3.21 1.3 3.21a.47.47 0 0 0 .2.245.568.568 0 0 0 .3.085zM12.33 16.664c.247 0 .445-.075.595-.224.15-.15.224-.348.224-.595V8.933h2.33c.511 0 .767-.226.767-.679 0-.452-.256-.678-.768-.678h-6.31c-.512 0-.768.226-.768.678 0 .453.256.679.768.679h2.33v6.912c0 .247.074.446.224.595.149.15.352.224.608.224zm6.028.038c.419 0 .794-.091 1.127-.275.333-.183.597-.446.793-.787v.32c0 .222.069.397.205.525.137.128.32.192.55.192a.83.83 0 0 0 .583-.205.694.694 0 0 0 .224-.538v-4.966c0-.23-.073-.414-.218-.55-.145-.137-.34-.205-.588-.205-.24 0-.431.068-.576.205-.145.136-.218.32-.218.55v2.854c0 .487-.134.877-.403 1.172-.269.294-.625.441-1.069.441-.384 0-.666-.106-.845-.32-.179-.213-.269-.542-.269-.985v-3.162c0-.23-.072-.414-.217-.55-.145-.137-.342-.205-.589-.205-.239 0-.43.068-.576.205-.145.136-.218.32-.218.55v3.149c0 1.724.768 2.585 2.304 2.585zm5.94-.025c.23 0 .422-.066.576-.199.153-.132.23-.322.23-.57v-2.687c0-.435.117-.798.352-1.088.235-.29.604-.461 1.107-.512l.384-.039c.29-.034.49-.106.602-.217.11-.111.166-.282.166-.512 0-.222-.064-.388-.192-.5-.128-.11-.303-.157-.525-.14l-.179.013c-.392.025-.749.14-1.069.345-.32.205-.56.495-.723.87v-.511c0-.23-.068-.408-.205-.532a.77.77 0 0 0-.537-.185.826.826 0 0 0-.557.192c-.15.128-.224.311-.224.55v4.954c0 .247.075.437.224.57.15.132.34.198.57.198zm12.85 0c.24 0 .434-.066.583-.199.15-.132.224-.322.224-.57V12.76c0-.905-.181-1.56-.544-1.965-.362-.405-.885-.608-1.568-.608-.46 0-.874.107-1.241.32-.367.214-.645.5-.832.858-.316-.785-.943-1.178-1.882-1.178-.427 0-.804.09-1.133.269-.328.18-.59.44-.787.78v-.306c0-.23-.07-.408-.211-.532a.794.794 0 0 0-.544-.185.87.87 0 0 0-.576.192c-.154.128-.23.311-.23.55v4.954c0 .247.074.437.223.57.15.132.34.198.57.198.23 0 .422-.066.576-.199.154-.132.23-.322.23-.57v-2.854c0-.495.122-.885.365-1.17.243-.287.574-.43.992-.43.342 0 .595.1.762.301.166.2.25.536.25 1.005v3.149c0 .247.076.437.23.57a.852.852 0 0 0 .576.198c.23 0 .42-.066.57-.199.149-.132.223-.322.223-.57v-2.854c0-.495.124-.885.372-1.17.247-.287.58-.43.998-.43.341 0 .595.1.762.301.166.2.25.536.25 1.005v3.149c0 .247.074.437.223.57.15.132.34.198.57.198zm5.364.025c.333 0 .683-.049 1.05-.147.367-.098.695-.228.985-.39.316-.18.474-.401.474-.666 0-.188-.045-.337-.135-.448a.43.43 0 0 0-.352-.166c-.12 0-.307.068-.563.205-.264.12-.501.213-.71.281a2.33 2.33 0 0 1-.723.103c-.538 0-.948-.14-1.23-.416-.28-.278-.447-.71-.498-1.3h3.776c.324 0 .486-.183.486-.55 0-.614-.115-1.148-.346-1.6a2.517 2.517 0 0 0-.972-1.05c-.419-.247-.91-.37-1.472-.37-.59 0-1.116.136-1.581.409a2.792 2.792 0 0 0-1.082 1.152c-.256.495-.384 1.062-.384 1.702 0 1.007.295 1.8.883 2.381.59.58 1.387.87 2.394.87zm1.19-3.801H40.81c.05-.512.207-.905.467-1.178.26-.273.608-.41 1.043-.41.427 0 .76.135.998.404.24.269.367.663.384 1.184zm3.47 3.776c.23 0 .422-.066.575-.199.154-.132.23-.322.23-.57v-2.687c0-.435.118-.798.353-1.088.234-.29.603-.461 1.107-.512l.384-.039c.29-.034.49-.106.601-.217.111-.111.167-.282.167-.512 0-.222-.064-.388-.192-.5-.128-.11-.303-.157-.525-.14l-.18.013c-.392.025-.748.14-1.068.345-.32.205-.561.495-.723.87v-.511c0-.23-.068-.408-.205-.532a.77.77 0 0 0-.538-.185.826.826 0 0 0-.556.192c-.15.128-.224.311-.224.55v4.954c0 .247.074.437.224.57.149.132.339.198.57.198zm4.902-7.603c.29 0 .52-.08.69-.237a.806.806 0 0 0 .257-.621.777.777 0 0 0-.263-.614c-.175-.154-.403-.23-.684-.23-.29 0-.52.076-.692.23a.786.786 0 0 0-.256.614c0 .256.086.463.256.62.171.159.401.238.692.238zm0 7.603c.23 0 .422-.066.576-.199.153-.132.23-.322.23-.57v-4.94c0-.247-.077-.435-.23-.563a.87.87 0 0 0-.576-.192c-.23 0-.42.064-.57.192-.15.128-.224.316-.224.563v4.94c0 .248.075.438.224.57.15.133.34.199.57.199zm5.235.025c.367 0 .725-.049 1.075-.147.35-.098.657-.232.922-.403a.865.865 0 0 0 .313-.288.72.72 0 0 0 .096-.378.703.703 0 0 0-.14-.448.425.425 0 0 0-.346-.179.739.739 0 0 0-.282.058 2.534 2.534 0 0 0-.333.173c-.204.11-.39.198-.556.262a1.578 1.578 0 0 1-.57.096c-.53 0-.937-.173-1.222-.518-.286-.346-.43-.839-.43-1.479 0-.648.144-1.145.43-1.491.285-.346.693-.518 1.222-.518.222 0 .418.032.589.096.17.064.35.151.537.262.103.06.205.11.308.154.102.042.2.064.294.064a.425.425 0 0 0 .352-.173.72.72 0 0 0 .134-.455c0-.273-.136-.499-.41-.678a3.314 3.314 0 0 0-.889-.384 3.732 3.732 0 0 0-1.005-.14c-.631 0-1.19.136-1.676.409-.487.273-.864.659-1.133 1.158-.269.5-.403 1.073-.403 1.722 0 .648.128 1.216.384 1.702.256.487.62.862 1.094 1.127.474.264 1.022.396 1.645.396zm7.897-.025c.256 0 .46-.075.608-.224.15-.15.224-.352.224-.608v-2.752h2.292c.964 0 1.715-.243 2.252-.73.538-.486.807-1.165.807-2.035 0-.87-.269-1.547-.807-2.029-.537-.482-1.288-.723-2.252-.723h-3.15c-.247 0-.44.068-.582.205-.14.136-.21.328-.21.576v7.488c0 .256.074.458.223.608.15.15.348.224.595.224zm2.919-4.851h-2.087v-2.97h2.087c1.135 0 1.702.495 1.702 1.485 0 .99-.567 1.485-1.702 1.485zm6.4 4.876c.41 0 .77-.093 1.081-.281a1.67 1.67 0 0 0 .685-.781v.282c0 .221.07.4.211.537s.323.205.544.205c.24 0 .427-.066.564-.198.136-.133.204-.314.204-.544v-3.124c0-.879-.21-1.533-.633-1.964-.423-.431-1.069-.647-1.94-.647-.4 0-.808.047-1.222.141-.414.094-.77.222-1.069.384-.17.094-.292.194-.364.3a.655.655 0 0 0-.11.378c0 .18.05.325.148.436.098.11.224.166.378.166.102 0 .264-.055.486-.166.35-.137.653-.241.909-.314.256-.073.508-.109.755-.109.401 0 .691.096.87.288.18.192.27.497.27.915v.295h-.32c-.93 0-1.66.06-2.19.179-.529.12-.91.311-1.145.576-.235.265-.352.627-.352 1.088 0 .367.098.7.294.998.196.3.465.534.807.704.34.171.72.256 1.139.256zm.32-1.152c-.282 0-.519-.087-.71-.262a.868.868 0 0 1-.289-.672c0-.222.069-.397.205-.525.137-.128.363-.217.679-.269.315-.05.76-.076 1.33-.076h.231v.268c0 .453-.134.822-.403 1.108-.269.285-.617.428-1.043.428zm5.389-6.476c.29 0 .52-.08.69-.237a.806.806 0 0 0 .257-.621.777.777 0 0 0-.263-.614c-.175-.154-.403-.23-.684-.23-.29 0-.52.076-.692.23a.786.786 0 0 0-.256.614c0 .256.086.463.256.62.171.159.401.238.692.238zm0 7.603c.23 0 .422-.066.576-.199.153-.132.23-.322.23-.57v-4.94c0-.247-.077-.435-.23-.563a.87.87 0 0 0-.576-.192c-.23 0-.42.064-.57.192-.15.128-.224.316-.224.563v4.94c0 .248.075.438.224.57.15.133.34.199.57.199zm7.526 0c.247 0 .442-.068.582-.205.141-.137.212-.324.212-.563V12.76c0-.862-.184-1.506-.55-1.933-.368-.426-.927-.64-1.678-.64a2.58 2.58 0 0 0-1.216.282 2.165 2.165 0 0 0-.857.806v-.345a.678.678 0 0 0-.211-.519.763.763 0 0 0-.544-.198c-.248 0-.444.068-.59.205a.704.704 0 0 0-.217.537v4.954c0 .239.07.426.211.563.141.137.335.205.583.205.247 0 .444-.068.589-.205.145-.137.217-.324.217-.563v-2.855c0-.486.139-.874.416-1.164.278-.29.647-.436 1.107-.436.393 0 .68.111.864.333.184.222.276.576.276 1.063v3.059c0 .239.072.426.217.563.145.137.342.205.589.205zm5.35-.013c.308.017.544-.028.71-.134a.52.52 0 0 0 .25-.468c0-.358-.213-.55-.64-.576l-.345-.025c-.58-.043-.87-.38-.87-1.011v-2.906h1.087c.23 0 .408-.051.532-.154.123-.102.185-.251.185-.448 0-.196-.062-.345-.185-.448-.124-.102-.301-.153-.532-.153h-1.088V9.163c0-.23-.072-.414-.217-.55-.145-.137-.337-.205-.576-.205-.248 0-.444.068-.589.205-.145.136-.218.32-.218.55v1.178h-.64c-.23 0-.407.051-.53.153-.125.103-.186.252-.186.448 0 .197.061.346.185.448.124.103.301.154.531.154h.64v2.79c0 1.434.717 2.202 2.15 2.304l.346.026zm2.586-7.59c.29 0 .52-.08.691-.237a.806.806 0 0 0 .256-.621.777.777 0 0 0-.262-.614c-.175-.154-.403-.23-.685-.23-.29 0-.52.076-.691.23a.786.786 0 0 0-.256.614c0 .256.085.463.256.62.17.159.4.238.691.238zm0 7.603c.23 0 .422-.066.576-.199.154-.132.23-.322.23-.57v-4.94c0-.247-.076-.435-.23-.563a.87.87 0 0 0-.576-.192c-.23 0-.42.064-.57.192-.149.128-.224.316-.224.563v4.94c0 .248.075.438.224.57.15.133.34.199.57.199zm7.526 0c.248 0 .442-.068.583-.205.14-.137.211-.324.211-.563V12.76c0-.862-.183-1.506-.55-1.933-.367-.426-.926-.64-1.677-.64a2.58 2.58 0 0 0-1.216.282 2.165 2.165 0 0 0-.858.806v-.345a.678.678 0 0 0-.211-.519.763.763 0 0 0-.544-.198c-.247 0-.444.068-.589.205a.704.704 0 0 0-.217.537v4.954c0 .239.07.426.21.563.142.137.336.205.583.205.248 0 .444-.068.589-.205.145-.137.218-.324.218-.563v-2.855c0-.486.138-.874.416-1.164.277-.29.646-.436 1.107-.436.392 0 .68.111.864.333.183.222.275.576.275 1.063v3.059c0 .239.073.426.218.563.145.137.34.205.588.205zm5.274 2.33c1.067 0 1.873-.252 2.42-.756.545-.503.818-1.246.818-2.227v-5.056c0-.23-.072-.414-.217-.55-.145-.137-.337-.205-.576-.205-.24 0-.431.068-.576.205a.704.704 0 0 0-.218.537v.333c-.188-.35-.46-.62-.819-.813a2.562 2.562 0 0 0-1.229-.288c-.546 0-1.032.13-1.459.39-.427.26-.757.628-.992 1.101-.235.474-.352 1.018-.352 1.632 0 .615.12 1.157.358 1.626.24.47.57.834.992 1.094.423.26.907.39 1.453.39.461 0 .87-.095 1.229-.287.358-.192.631-.463.82-.813v.82c0 1.091-.56 1.638-1.678 1.638a3.11 3.11 0 0 1-.838-.103 7.338 7.338 0 0 1-.826-.294 5.185 5.185 0 0 0-.345-.135.89.89 0 0 0-.282-.057.43.43 0 0 0-.352.166c-.09.111-.134.26-.134.448 0 .265.158.49.473.679.623.35 1.4.524 2.33.524zm.026-3.828c-.504 0-.9-.166-1.19-.499-.29-.333-.436-.79-.436-1.37 0-.588.145-1.05.435-1.382.29-.333.687-.5 1.19-.5.513 0 .912.167 1.197.5.286.333.43.794.43 1.382 0 .58-.144 1.037-.43 1.37-.285.333-.684.5-1.196.5z" fill="#FFF" fill-rule="nonzero" mask="url(#h)"/>
            </g>
        </g>
        <path d="M46.55 443.91c-7.786-2.563-.449 7.618-.449 7.618s-13.44-18.653-18.508-17.267c-4.646 1.269-2.754 10.69-2.754 10.69s-2.848-1.88-9.194-1.88c-6.345 0 4.905 20.117 4.905 20.117h46.155s-12.37-16.715-20.156-19.277z" fill="url(#i)" mask="url(#c)"/>
        <path d="M299.147 472.397c-40.619-9.678-85.304-15.355-129.038-19.23-65.99-5.846-133.552-3.598-197.185 6.745L-64 553.003c0 11.243 502 0 502 0v-48.12c-46.84-10.05-92.687-21.488-138.853-32.486" fill="#C2F2E5" mask="url(#c)"/>
        <g mask="url(#c)">
            <g fill="#393939">
                <path d="M257.97 390.18c-1.892 6.293 1.691 12.929 8.003 14.821 6.312 1.892 12.963-1.675 14.855-7.968 1.891-6.292-1.692-12.928-8.004-14.82-6.312-1.892-12.962 1.675-14.854 7.968M226.704 381.688c-1.718 5.715 1.537 11.742 7.27 13.46 5.733 1.72 11.773-1.521 13.492-7.236 1.718-5.716-1.536-11.742-7.27-13.461-5.733-1.719-11.773 1.521-13.492 7.237"/>
            </g>
            <g transform="scale(-1 1) rotate(-9 2327.836 1939.086)">
                <mask id="k" fill="#fff">
                    <use xlink:href="#j"/>
                </mask>
                <use fill="#FEDC4D" xlink:href="#j"/>
                <path d="M12.644 3.145c.82 6.042 6.398 10.277 12.459 9.459 6.06-.818 10.307-6.38 9.487-12.422-.82-6.042-6.399-10.277-12.459-9.46-6.06.819-10.307 6.38-9.487 12.423" fill="#393939" mask="url(#k)"/>
            </g>
            <path d="m244.148 388.626 3.68-7.106a.835.835 0 0 1 1.476-.012l3.396 6.288a.832.832 0 0 1-.776 1.226l-7.776-.396z" fill="#7789EE"/>
            <path d="m244.148 388.626-7.978-.853a.831.831 0 0 0-.823 1.221l3.396 6.289a.835.835 0 0 0 1.453.029l3.952-6.686z" fill="#7789EE"/>
            <path d="M244.15 407.808c-1.223 4.168.61 8.373 4.093 9.392 3.484 1.02 7.3-1.532 8.522-5.7 1.224-4.168-.61-8.373-4.093-9.392-3.484-1.02-7.3 1.532-8.522 5.7" fill="#FFF"/>
            <path d="M246.247 407.28c-.496 1.69.172 3.373 1.493 3.76 1.32.386 2.793-.67 3.289-2.36s-.172-3.374-1.493-3.76c-1.321-.387-2.793.67-3.29 2.36" fill="#020202"/>
            <path d="M232.165 404.301c-1.223 4.168.61 8.373 4.093 9.392 3.484 1.02 7.3-1.532 8.522-5.7 1.224-4.168-.61-8.373-4.093-9.392-3.484-1.02-7.3 1.532-8.522 5.7" fill="#FFF"/>
            <path d="M234.292 403.781c-.497 1.69.172 3.374 1.493 3.76 1.32.386 2.793-.67 3.289-2.36s-.173-3.374-1.493-3.76c-1.321-.387-2.793.67-3.29 2.36" fill="#020202"/>
            <path d="M245.836 416.085a3.735 3.735 0 0 1-4.636 2.526 3.728 3.728 0 0 1-2.537-4.626l7.173 2.1z" fill="#1E1E1E"/>
            <g transform="scale(-1 1) rotate(-9 2514.468 1770.34)">
                <mask id="m" fill="#fff">
                    <use xlink:href="#l"/>
                </mask>
                <path d="M5.342 1.468c-.66.084-1.17.583-1.349 1.228-.336-.579-.957-.933-1.616-.847C1.476 1.964.849 2.85.975 3.832c.126.98.959 1.68 1.86 1.564.659-.084 1.17-.583 1.348-1.228.337.58.958.932 1.617.848.9-.116 1.528-1.004 1.402-1.984-.127-.98-.96-1.68-1.86-1.564" fill="#C909A0" mask="url(#m)"/>
            </g>
            <g>
                <path stroke="#FEDC4D" stroke-width="7.5" d="m247.774 420.281.477 42.324"/>
                <g stroke="#1E1E1E" stroke-linecap="round" stroke-linejoin="round" stroke-width=".971">
                    <path d="M266.967 443.797s11.604-11.857-4.29-18.487M265.577 449.257l1.222-5.154s-1.14-2.659-3.468-1.733"/>
                    <path d="m263.643 448.247 3.155-4.144-5.114.948"/>
                </g>
                <path d="m260.014 465.097-15.355-2.432-.027-7.39 9.297 1.472c3.99.632 6.715 4.37 6.085 8.35" fill="#FEDC4D"/>
                <path stroke="#FEDC4D" stroke-width="7.5" d="m232.001 417.696.478 42.324"/>
                <path d="m219.235 459.115 16.99 2.691-.026-7.39-8.597-1.361c-3.99-.632-7.737 2.081-8.367 6.06" fill="#FEDC4D"/>
                <g stroke="#1E1E1E" stroke-linecap="round" stroke-linejoin="round" stroke-width=".971">
                    <path d="M203.436 391.962c-.57.286-1.085 2.045-1.085 2.045l.559 3.386s.84 16.74 15.294 11.778"/>
                    <path d="m205.543 393.058-1.215.948-1.42 3.386 2.809-2.005"/>
                </g>
            </g>
        </g>
        <path d="m53.85 450.443 5.648-.203 2.787-.088 2.955-.08 3.122-.066 1.624-.027 1.665-.022 1.706-.016 2.636-.013h1.809c5.426.343 10.871.924 16.393 1.815l1.58.263.792.138 1.586.289 1.592.307 1.596.325c14.66 3.064 30.011 8.467 47.07 17.498 33.872 17.929 72.907 45.406 100.123 87.155 1.6 2.455-.427 3.38-2.053 1.104l-25.85 8.884-11.218 3.888-6.888 2.414-4.882 1.747-1.629.607-.465.183-.245.102-.155.072-.054.032c-8.045-25.872-27.634-52.39-53.174-74.83l-7.178-6.32-1.988-1.743-1.966-1.716-1.947-1.688c-10.343-8.922-20.035-16.61-31.332-22.779-7.357-4.018-14.582-7.397-21.618-10.034l-1.428-.528-.86-.328-1.327-.523-3.13-1.243-1.287-.5-.879-.336-1.337-.497c-.15-.055-.3-.11-.449-.163l-.897-.318-1.43-.488-1.401-.466-.888-.286-.852-.265-.816-.242a49.31 49.31 0 0 0-.781-.22l-.748-.196c-1.339-.336-2.51-.545-3.533-.599z" fill="#7CDBC4" opacity=".395" mask="url(#c)"/>
        <g mask="url(#c)">
            <g transform="translate(56 228)">
                <rect fill="#E7EBFF" width="30.4" height="30.4" rx="4.8"/>
                <path d="M12.24 22.49c.918 0 1.618-.344 2.1-1.03.482-.688.722-1.692.722-3.014 0-1.321-.24-2.324-.722-3.007-.482-.683-1.182-1.025-2.1-1.025-.918 0-1.618.344-2.1 1.03-.482.688-.722 1.692-.722 3.014 0 1.314.24 2.314.722 3.001.482.687 1.182 1.03 2.1 1.03zm0-.93c-.575 0-.997-.252-1.266-.756-.268-.504-.403-1.29-.403-2.358 0-1.075.135-1.86.403-2.357.27-.497.691-.745 1.266-.745.575 0 .997.248 1.266.745.268.496.403 1.282.403 2.357 0 1.076-.135 1.863-.403 2.364-.27.5-.691.75-1.266.75zm6.832.918c.538 0 1.014-.108 1.428-.324.414-.217.737-.52.969-.908.231-.388.347-.832.347-1.332 0-.493-.105-.93-.314-1.31a2.204 2.204 0 0 0-.879-.886c-.377-.209-.812-.313-1.305-.313-.612 0-1.123.172-1.534.515v-2.486h3.26c.17 0 .305-.041.402-.124a.43.43 0 0 0 .146-.347.417.417 0 0 0-.146-.336c-.097-.082-.231-.123-.403-.123H17.19c-.179 0-.315.049-.408.146a.558.558 0 0 0-.14.403v3.685c0 .127.043.23.128.308a.456.456 0 0 0 .32.117.57.57 0 0 0 .403-.157c.224-.231.463-.4.717-.51a2.18 2.18 0 0 1 .862-.162c.493 0 .887.146 1.182.437.295.291.442.68.442 1.165 0 .508-.146.902-.437 1.182-.291.28-.698.42-1.22.42-.344 0-.67-.062-.98-.185a3.78 3.78 0 0 1-.925-.543 1.011 1.011 0 0 0-.196-.112.493.493 0 0 0-.184-.034.335.335 0 0 0-.27.14.53.53 0 0 0-.111.342c0 .171.074.32.224.448.298.276.67.492 1.114.65a4.06 4.06 0 0 0 1.361.234z" fill="#212A39" fill-rule="nonzero" opacity=".58"/>
                <path d="M11.526 10.438c.15 0 .268-.044.356-.134a.5.5 0 0 0 .13-.365V8.5h1.556c.162 0 .282-.032.358-.096.077-.064.116-.162.116-.294 0-.137-.039-.237-.116-.301-.076-.064-.196-.096-.358-.096h-1.555V6.675h1.683c.162 0 .282-.032.358-.096.077-.064.116-.162.116-.294 0-.137-.039-.237-.116-.301-.076-.064-.196-.096-.358-.096h-2.202c-.149 0-.264.04-.345.122-.081.08-.122.196-.122.345V9.94c0 .15.046.27.138.362a.489.489 0 0 0 .361.137zm6.477.013c.128 0 .24-.038.336-.115a.36.36 0 0 0 .144-.294.489.489 0 0 0-.096-.276l-.486-.73a1.288 1.288 0 0 0-.291-.322.842.842 0 0 0-.343-.15c.35-.073.621-.225.813-.455.192-.23.288-.519.288-.864 0-.44-.135-.776-.406-1.008-.271-.233-.671-.349-1.2-.349h-1.607c-.15 0-.264.04-.345.122-.081.08-.122.196-.122.345V9.94c0 .154.045.275.134.365.09.09.212.134.365.134.15 0 .268-.044.355-.134a.5.5 0 0 0 .132-.365V8.646h.518c.124 0 .226.025.307.074.081.05.158.13.23.24l.845 1.254c.052.081.116.141.192.18a.524.524 0 0 0 .237.057zm-1.389-2.56h-.953V6.65h.953c.286 0 .493.049.621.147.128.098.192.256.192.473 0 .214-.064.37-.192.47-.128.101-.335.151-.62.151zm3.06 2.547a.493.493 0 0 0 .364-.134.493.493 0 0 0 .135-.365V6.35a.484.484 0 0 0-.135-.359.493.493 0 0 0-.364-.134.493.493 0 0 0-.365.134.484.484 0 0 0-.135.359v3.59c0 .154.045.275.135.365.09.09.211.134.365.134z" fill="#8FA0FF" fill-rule="nonzero" opacity=".58"/>
            </g>
            <g transform="translate(91.146 228)">
                <mask id="o" fill="#fff">
                    <use xlink:href="#n"/>
                </mask>
                <use fill="#FCAB64" opacity=".763" xlink:href="#n"/>
                <path d="M9.62 24.064c.656 0 1.156-.245 1.5-.736.344-.49.516-1.208.516-2.152 0-.944-.172-1.66-.516-2.148-.344-.488-.844-.732-1.5-.732s-1.156.245-1.5.736c-.344.49-.516 1.208-.516 2.152 0 .939.172 1.653.516 2.144.344.49.844.736 1.5.736zm0-.664c-.41 0-.712-.18-.904-.54-.192-.36-.288-.921-.288-1.684 0-.768.096-1.33.288-1.684.192-.355.494-.532.904-.532.411 0 .712.177.904.532.192.355.288.916.288 1.684 0 .768-.096 1.33-.288 1.688-.192.357-.493.536-.904.536zm4.88.656a2.17 2.17 0 0 0 1.02-.232c.296-.155.527-.37.692-.648.166-.277.248-.595.248-.952 0-.352-.074-.664-.224-.936a1.574 1.574 0 0 0-.628-.632 1.89 1.89 0 0 0-.932-.224c-.437 0-.802.123-1.096.368v-1.776h2.328c.123 0 .22-.03.288-.088a.307.307 0 0 0 .104-.248.298.298 0 0 0-.104-.24.432.432 0 0 0-.288-.088h-2.752c-.128 0-.225.035-.292.104a.398.398 0 0 0-.1.288v2.632c0 .09.031.164.092.22a.326.326 0 0 0 .228.084.407.407 0 0 0 .288-.112c.16-.165.331-.287.512-.364.182-.077.387-.116.616-.116.352 0 .634.104.844.312.211.208.316.485.316.832 0 .363-.104.644-.312.844-.208.2-.498.3-.872.3-.245 0-.478-.044-.7-.132a2.7 2.7 0 0 1-.66-.388.722.722 0 0 0-.14-.08.352.352 0 0 0-.132-.024.239.239 0 0 0-.192.1.409.409 0 0 0 .08.564c.214.197.48.352.796.464a2.9 2.9 0 0 0 .972.168zm9.32-.016a.383.383 0 0 0 .288-.116.414.414 0 0 0 .112-.3v-4.888a.423.423 0 0 0-.108-.3.37.37 0 0 0-.284-.116.357.357 0 0 0-.28.116.432.432 0 0 0-.104.3v3.888l-3.136-4.144a.367.367 0 0 0-.32-.16.383.383 0 0 0-.288.116.414.414 0 0 0-.112.3v4.888c0 .128.035.23.104.304.07.075.163.112.28.112a.37.37 0 0 0 .284-.116.423.423 0 0 0 .108-.3v-3.88L23.5 23.88c.075.107.182.16.32.16zm3.312.016c.384 0 .722-.083 1.012-.248.291-.165.515-.401.672-.708.158-.307.236-.663.236-1.068 0-.41-.078-.77-.236-1.076a1.673 1.673 0 0 0-.672-.708A2.011 2.011 0 0 0 27.132 20c-.384 0-.72.083-1.012.248-.29.165-.514.401-.672.708a2.327 2.327 0 0 0-.236 1.076c0 .405.08.761.236 1.068.158.307.382.543.672.708.291.165.628.248 1.012.248zm0-.64c-.357 0-.63-.117-.82-.352-.189-.235-.284-.579-.284-1.032 0-.448.096-.79.288-1.028.192-.237.464-.356.816-.356.352 0 .624.119.816.356.192.237.288.58.288 1.028 0 .453-.094.797-.284 1.032-.189.235-.462.352-.82.352zm4.28.616a.475.475 0 0 0 .244-.068.412.412 0 0 0 .172-.196l1.528-3.24a.37.37 0 0 0 .032-.152.322.322 0 0 0-.116-.248.39.39 0 0 0-.464-.048.349.349 0 0 0-.14.176L31.436 23l-1.24-2.752c-.074-.15-.189-.224-.344-.224a.445.445 0 0 0-.288.104.31.31 0 0 0-.128.248c0 .059.011.11.032.152l1.528 3.24c.038.085.095.15.172.196a.475.475 0 0 0 .244.068zM10.759 13.105c.77 0 1.375-.172 1.814-.515.44-.344.66-.819.66-1.425 0-.438-.114-.808-.343-1.112-.228-.303-.55-.512-.966-.626.355-.128.632-.33.833-.606a1.62 1.62 0 0 0 .302-.98c0-.587-.213-1.043-.639-1.37-.426-.327-1.014-.49-1.764-.49H8.121c-.198 0-.353.054-.465.162-.113.108-.17.26-.17.454v5.892c0 .195.057.347.17.455.112.107.267.161.465.161h2.638zm-.317-4.123H8.775v-1.99h1.667c.456 0 .797.08 1.022.242.225.162.338.411.338.748 0 .667-.454 1-1.36 1zm.173 3.113h-1.84V9.993h1.84c.47 0 .817.087 1.038.263.222.175.333.44.333.798 0 .357-.11.62-.328.788-.218.169-.565.253-1.043.253zm6.023 1.091c.51 0 .959-.104 1.344-.313.385-.209.682-.509.89-.9.208-.39.312-.845.312-1.364 0-.518-.104-.972-.312-1.359a2.155 2.155 0 0 0-.89-.894c-.385-.21-.833-.313-1.344-.313-.512 0-.96.104-1.345.313a2.188 2.188 0 0 0-.895.894c-.21.387-.316.84-.316 1.36 0 .518.105.973.316 1.363.212.391.51.691.895.9.385.209.833.313 1.345.313zm-.01-.98c-.41 0-.723-.135-.941-.404-.218-.27-.327-.667-.327-1.193 0-.518.11-.914.332-1.187.221-.273.537-.41.946-.41.409 0 .722.137.94.41.218.273.327.669.327 1.187 0 .526-.109.923-.327 1.193-.218.27-.535.404-.95.404zm4.243.96a.685.685 0 0 0 .46-.157c.122-.104.184-.254.184-.45V6.528c0-.196-.062-.344-.184-.445a.7.7 0 0 0-.46-.151.68.68 0 0 0-.455.151c-.12.101-.18.25-.18.445v6.033c0 .195.06.345.18.45.119.104.27.156.455.156zm2.597 0a.685.685 0 0 0 .46-.157c.122-.104.184-.254.184-.45V6.528c0-.196-.062-.344-.184-.445a.7.7 0 0 0-.46-.151.68.68 0 0 0-.455.151c-.12.101-.18.25-.18.445v6.033c0 .195.06.345.18.45.119.104.27.156.455.156zm3.19 1.809c.245 0 .426-.115.541-.344l2.792-5.78a.486.486 0 0 0-.128-.621.648.648 0 0 0-.424-.157.56.56 0 0 0-.302.086.586.586 0 0 0-.22.268l-1.421 3.112-1.431-3.123a.575.575 0 0 0-.225-.267.604.604 0 0 0-.317-.086.702.702 0 0 0-.455.161.508.508 0 0 0-.148.627l1.901 3.91-.695 1.446a.646.646 0 0 0-.061.252c0 .149.06.272.178.37.12.097.258.146.415.146zm9.672-1.82c.136 0 .26-.033.373-.1a.61.61 0 0 0 .25-.293l1.688-3.911a.508.508 0 0 0 .05-.232.486.486 0 0 0-.189-.39.648.648 0 0 0-.424-.156.537.537 0 0 0-.511.364l-1.196 3.082-1.248-3.062a.609.609 0 0 0-.572-.384.609.609 0 0 0-.573.384l-1.237 3.052-1.206-3.082a.55.55 0 0 0-.532-.364.696.696 0 0 0-.45.166.5.5 0 0 0-.204.4c0 .06.017.134.05.222l1.677 3.91c.055.129.14.226.256.294a.721.721 0 0 0 .368.1c.136 0 .26-.033.373-.1a.61.61 0 0 0 .25-.293l1.177-2.89 1.216 2.89a.61.61 0 0 0 .25.293.694.694 0 0 0 .364.1zm5.429.031c.511 0 .96-.104 1.344-.313.386-.209.682-.509.89-.9.208-.39.312-.845.312-1.364 0-.518-.104-.972-.312-1.359a2.155 2.155 0 0 0-.89-.894c-.385-.21-.833-.313-1.344-.313-.511 0-.96.104-1.345.313a2.188 2.188 0 0 0-.894.894c-.211.387-.317.84-.317 1.36 0 .518.106.973.317 1.363.211.391.51.691.894.9.386.209.834.313 1.345.313zm-.01-.98c-.41 0-.723-.135-.94-.404-.219-.27-.328-.667-.328-1.193 0-.518.11-.914.332-1.187.222-.273.537-.41.946-.41.409 0 .722.137.94.41.219.273.328.669.328 1.187 0 .526-.11.923-.327 1.193-.219.27-.535.404-.951.404zm5.889.98c.511 0 .96-.104 1.344-.313.386-.209.682-.509.89-.9.208-.39.312-.845.312-1.364 0-.518-.104-.972-.312-1.359a2.155 2.155 0 0 0-.89-.894c-.385-.21-.833-.313-1.344-.313-.511 0-.96.104-1.345.313a2.188 2.188 0 0 0-.894.894c-.211.387-.317.84-.317 1.36 0 .518.106.973.317 1.363.211.391.51.691.894.9.386.209.834.313 1.345.313zm-.01-.98c-.41 0-.723-.135-.94-.404-.219-.27-.328-.667-.328-1.193 0-.518.11-.914.332-1.187.222-.273.537-.41.946-.41.409 0 .723.137.94.41.219.273.328.669.328 1.187 0 .526-.11.923-.327 1.193-.218.27-.535.404-.951.404zm5.552.98c.36 0 .683-.077.966-.232.283-.155.5-.37.65-.647v.253c0 .181.057.326.173.434.116.108.27.162.46.162s.344-.054.46-.162a.565.565 0 0 0 .174-.434V6.517a.538.538 0 0 0-.184-.425.686.686 0 0 0-.47-.161.642.642 0 0 0-.455.156.533.533 0 0 0-.17.41V8.89a1.552 1.552 0 0 0-.643-.626 2.02 2.02 0 0 0-.961-.222c-.437 0-.822.104-1.156.313a2.113 2.113 0 0 0-.782.89c-.187.383-.281.831-.281 1.343s.094.965.281 1.36c.188.393.45.698.787.914.338.215.721.323 1.15.323zm.337-.98c-.402 0-.716-.142-.94-.425-.226-.282-.338-.68-.338-1.192 0-.505.112-.893.337-1.162.225-.27.542-.404.951-.404.402 0 .714.136.936.409.221.273.332.665.332 1.177s-.11.906-.332 1.183c-.222.276-.537.414-.946.414zm9.406.9c1.18 0 2.095-.312 2.746-.935.65-.624.976-1.501.976-2.633 0-1.125-.325-2-.976-2.622-.651-.623-1.566-.935-2.746-.935H60.9c-.198 0-.353.054-.465.162-.113.108-.169.26-.169.454v5.892c0 .195.056.347.169.455.112.107.267.161.465.161h2.024zm-.081-1.062h-1.258V7.042h1.258c1.656 0 2.484.832 2.484 2.496 0 1.67-.828 2.506-2.484 2.506zm6.615 1.142c.327 0 .615-.074.864-.222.249-.148.43-.354.547-.617v.223c0 .175.056.316.169.424a.602.602 0 0 0 .434.162c.19 0 .34-.052.45-.157a.566.566 0 0 0 .164-.43v-2.465c0-.694-.17-1.21-.507-1.551-.337-.34-.853-.51-1.549-.51-.32 0-.645.037-.976.11-.33.075-.615.176-.854.304a.823.823 0 0 0-.291.237.513.513 0 0 0-.087.298c0 .142.04.256.118.344a.387.387 0 0 0 .301.131c.082 0 .211-.043.389-.131.28-.108.521-.19.726-.248a2.23 2.23 0 0 1 .603-.085c.32 0 .552.075.695.227.143.151.215.392.215.722v.233h-.256c-.743 0-1.326.047-1.748.141-.423.095-.728.246-.915.455-.188.209-.281.495-.281.859 0 .29.078.552.235.788.157.236.371.421.644.556.273.135.576.202.91.202zm.255-.91a.817.817 0 0 1-.567-.207.682.682 0 0 1-.23-.53c0-.175.054-.313.164-.414.109-.101.29-.172.541-.213.253-.04.607-.06 1.064-.06h.184v.212c0 .357-.108.648-.322.874-.215.226-.493.339-.834.339zm7.72.89c.198 0 .353-.054.465-.162a.587.587 0 0 0 .169-.444v-2.486c0-.68-.147-1.19-.44-1.526-.293-.337-.74-.505-1.34-.505-.36 0-.684.074-.97.222a1.72 1.72 0 0 0-.686.636V8.63a.533.533 0 0 0-.168-.41.613.613 0 0 0-.435-.156c-.198 0-.354.054-.47.161a.553.553 0 0 0-.174.425v3.91c0 .19.056.337.169.445.112.108.267.162.465.162s.354-.054.47-.162a.577.577 0 0 0 .174-.444v-2.254c0-.384.11-.69.332-.92.222-.229.517-.343.885-.343.313 0 .543.088.69.263.146.175.22.454.22.838v2.416c0 .188.058.336.174.444.115.108.272.162.47.162zm4.151.02a3.2 3.2 0 0 0 .859-.116c.28-.078.525-.184.736-.318a.687.687 0 0 0 .25-.228.563.563 0 0 0 .077-.298.55.55 0 0 0-.112-.354.34.34 0 0 0-.276-.141.596.596 0 0 0-.225.045c-.075.03-.164.076-.266.137a3.875 3.875 0 0 1-.445.207c-.133.05-.284.076-.455.076-.423 0-.748-.137-.976-.41-.229-.272-.343-.661-.343-1.167 0-.512.114-.904.343-1.177.228-.273.553-.41.976-.41.177 0 .334.026.47.077.137.05.28.12.43.207.082.047.163.087.245.121.082.034.16.05.235.05a.34.34 0 0 0 .282-.136.563.563 0 0 0 .107-.359c0-.215-.11-.394-.327-.535a3.014 3.014 0 0 0-1.513-.414c-.505 0-.951.107-1.34.323-.388.215-.69.52-.905.914-.214.395-.322.848-.322 1.36 0 .512.102.96.307 1.344.204.384.496.68.874.889.378.209.816.313 1.314.313zm5.112 0c.266 0 .545-.039.839-.116.293-.078.555-.18.787-.308.252-.142.378-.317.378-.526a.542.542 0 0 0-.107-.353.346.346 0 0 0-.281-.132c-.096 0-.246.054-.45.162-.212.094-.4.168-.568.222-.167.054-.36.081-.577.081-.43 0-.757-.11-.982-.328-.225-.22-.358-.561-.399-1.026h3.017c.259 0 .388-.145.388-.435 0-.485-.092-.906-.276-1.263a1.996 1.996 0 0 0-.777-.828c-.334-.196-.726-.293-1.176-.293-.47 0-.891.107-1.263.323-.371.215-.66.519-.864.91-.204.39-.306.838-.306 1.343 0 .795.235 1.422.705 1.88.47.458 1.108.687 1.912.687zm.951-3.001h-2.31c.04-.404.165-.714.373-.93.207-.215.485-.323.833-.323.34 0 .606.106.797.318.191.212.293.524.307.935z" fill="#FFF" fill-rule="nonzero" mask="url(#o)"/>
            </g>
        </g>
        <g mask="url(#c)">
            <g transform="translate(35 160)">
                <rect fill="#E7EBFF" width="30.4" height="30" rx="4.8"/>
                <path d="M11.64 22.09c.918 0 1.618-.344 2.1-1.03.482-.688.722-1.692.722-3.014 0-1.321-.24-2.324-.722-3.007-.482-.683-1.182-1.025-2.1-1.025-.918 0-1.618.344-2.1 1.03-.482.688-.722 1.692-.722 3.014 0 1.314.24 2.314.722 3.001.482.687 1.182 1.03 2.1 1.03zm0-.93c-.575 0-.997-.252-1.266-.756-.268-.504-.403-1.29-.403-2.358 0-1.075.135-1.86.403-2.357.27-.497.691-.745 1.266-.745.575 0 .997.248 1.266.745.268.496.403 1.282.403 2.357 0 1.076-.135 1.863-.403 2.364-.27.5-.691.75-1.266.75zm6.72.918c.918 0 1.63-.192 2.134-.576.504-.385.756-.92.756-1.608 0-.477-.127-.888-.381-1.232-.254-.343-.612-.582-1.075-.716a1.89 1.89 0 0 0 1.265-1.826c0-.65-.239-1.163-.717-1.54-.477-.377-1.138-.566-1.982-.566-.844 0-1.505.189-1.982.566-.478.377-.717.89-.717 1.54 0 .426.114.799.341 1.12.228.321.54.556.936.706-.463.127-.824.362-1.081.705-.258.344-.387.758-.387 1.243 0 .687.252 1.223.756 1.608.504.384 1.216.576 2.134.576zm0-4.547c-.523 0-.918-.112-1.187-.336-.269-.224-.403-.549-.403-.974 0-.41.134-.726.403-.947.269-.22.664-.33 1.187-.33s.918.11 1.187.33c.269.22.403.536.403.947 0 .425-.134.75-.403.974-.269.224-.664.336-1.187.336zm0 3.618c-1.187 0-1.78-.444-1.78-1.333 0-.896.593-1.344 1.78-1.344s1.78.448 1.78 1.344c0 .889-.593 1.333-1.78 1.333z" fill="#212A39" fill-rule="nonzero" opacity=".3"/>
                <path d="M11.117 10.32c.362 0 .681-.057.957-.17.275-.114.488-.274.64-.48.151-.207.227-.445.227-.714 0-.345-.127-.617-.381-.815-.254-.198-.67-.36-1.251-.486a4.446 4.446 0 0 1-.573-.158.72.72 0 0 1-.288-.174.363.363 0 0 1-.086-.25c0-.172.074-.308.224-.407.149-.099.354-.148.614-.148.226 0 .413.027.56.082.147.055.308.137.483.246.073.042.13.07.17.082.04.013.084.02.131.02.085 0 .161-.04.227-.12.066-.08.1-.173.1-.279a.409.409 0 0 0-.042-.192.504.504 0 0 0-.138-.155c-.392-.299-.892-.448-1.497-.448-.346 0-.656.06-.932.18-.275.12-.49.286-.646.499a1.184 1.184 0 0 0-.234.716c0 .24.055.445.164.613.108.169.281.31.518.423.237.114.554.21.95.29.355.072.6.148.74.228.138.08.208.185.208.316a.442.442 0 0 1-.224.398c-.15.092-.365.139-.647.139-.226 0-.433-.027-.62-.08a2.169 2.169 0 0 1-.557-.249.869.869 0 0 0-.164-.079.438.438 0 0 0-.137-.022c-.086 0-.161.04-.227.12a.423.423 0 0 0-.1.278c0 .08.014.147.042.2a.445.445 0 0 0 .138.148c.183.143.42.253.71.331.29.078.604.117.94.117zm6.259-.032a.493.493 0 0 0 .33-.123.38.38 0 0 0 .144-.3.502.502 0 0 0-.052-.202l-1.728-3.58a.562.562 0 0 0-.217-.228.605.605 0 0 0-.608-.003.497.497 0 0 0-.211.23l-1.728 3.581a.502.502 0 0 0-.052.202c0 .118.05.218.148.3.098.082.209.123.332.123a.43.43 0 0 0 .234-.066.427.427 0 0 0 .163-.199l.34-.745h2.169l.34.745a.42.42 0 0 0 .396.265zm-1.075-1.755H14.81l.748-1.642.743 1.642zm3.065 1.762a.497.497 0 0 0 .365-.133.475.475 0 0 0 .135-.354V6.613h1.036c.316 0 .474-.135.474-.405 0-.265-.158-.397-.474-.397H17.83c-.315 0-.473.132-.473.397 0 .27.158.405.473.405h1.037v3.195c0 .148.046.266.138.354a.5.5 0 0 0 .361.133z" fill="#8FA0FF" fill-rule="nonzero" opacity=".192"/>
                <mask id="q" fill="#fff">
                    <use xlink:href="#p"/>
                </mask>
                <use fill="#2AAAEE" opacity=".278" xlink:href="#p"/>
                <path d="M48.416 23.824c.656 0 1.156-.245 1.5-.736.344-.49.516-1.208.516-2.152 0-.944-.172-1.66-.516-2.148-.344-.488-.844-.732-1.5-.732s-1.156.245-1.5.736c-.344.49-.516 1.208-.516 2.152 0 .939.172 1.653.516 2.144.344.49.844.736 1.5.736zm0-.664c-.41 0-.712-.18-.904-.54-.192-.36-.288-.921-.288-1.684 0-.768.096-1.33.288-1.684.192-.355.493-.532.904-.532.41 0 .712.177.904.532.192.355.288.916.288 1.684 0 .768-.096 1.33-.288 1.688-.192.357-.493.536-.904.536zm4.8.656c.656 0 1.164-.137 1.524-.412.36-.275.54-.657.54-1.148 0-.341-.09-.635-.272-.88a1.409 1.409 0 0 0-.768-.512 1.35 1.35 0 0 0 .904-1.304c0-.464-.17-.83-.512-1.1-.341-.27-.813-.404-1.416-.404s-1.075.135-1.416.404c-.341.27-.512.636-.512 1.1a1.347 1.347 0 0 0 .912 1.304 1.39 1.39 0 0 0-.772.504 1.438 1.438 0 0 0-.276.888c0 .49.18.873.54 1.148.36.275.868.412 1.524.412zm0-3.248c-.373 0-.656-.08-.848-.24-.192-.16-.288-.392-.288-.696 0-.293.096-.519.288-.676.192-.157.475-.236.848-.236s.656.079.848.236c.192.157.288.383.288.676 0 .304-.096.536-.288.696-.192.16-.475.24-.848.24zm0 2.584c-.848 0-1.272-.317-1.272-.952 0-.64.424-.96 1.272-.96.848 0 1.272.32 1.272.96 0 .635-.424.952-1.272.952zm9.4.648a.383.383 0 0 0 .288-.116.414.414 0 0 0 .112-.3v-4.888a.423.423 0 0 0-.108-.3.37.37 0 0 0-.284-.116.357.357 0 0 0-.28.116.432.432 0 0 0-.104.3v3.888l-3.136-4.144a.367.367 0 0 0-.32-.16.383.383 0 0 0-.288.116.414.414 0 0 0-.112.3v4.888c0 .128.035.23.104.304.07.075.163.112.28.112a.37.37 0 0 0 .284-.116.423.423 0 0 0 .108-.3v-3.88l3.136 4.136c.075.107.181.16.32.16zm3.312.016c.384 0 .721-.083 1.012-.248.29-.165.515-.401.672-.708.157-.307.236-.663.236-1.068 0-.41-.079-.77-.236-1.076a1.673 1.673 0 0 0-.672-.708 2.011 2.011 0 0 0-1.012-.248c-.384 0-.721.083-1.012.248-.29.165-.515.401-.672.708a2.327 2.327 0 0 0-.236 1.076c0 .405.079.761.236 1.068.157.307.381.543.672.708.29.165.628.248 1.012.248zm0-.64c-.357 0-.63-.117-.82-.352-.19-.235-.284-.579-.284-1.032 0-.448.096-.79.288-1.028.192-.237.464-.356.816-.356.352 0 .624.119.816.356.192.237.288.58.288 1.028 0 .453-.095.797-.284 1.032-.19.235-.463.352-.82.352zm4.28.616a.475.475 0 0 0 .244-.068.412.412 0 0 0 .172-.196l1.528-3.24a.37.37 0 0 0 .032-.152.322.322 0 0 0-.116-.248.39.39 0 0 0-.464-.048.349.349 0 0 0-.14.176l-1.232 2.744-1.24-2.752c-.075-.15-.19-.224-.344-.224a.445.445 0 0 0-.288.104.31.31 0 0 0-.128.248c0 .059.01.11.032.152l1.528 3.24c.037.085.095.15.172.196a.475.475 0 0 0 .244.068zM49.124 13.196c.45 0 .874-.065 1.27-.197a3.312 3.312 0 0 0 1.054-.57.568.568 0 0 0 .185-.218.659.659 0 0 0 .05-.268.575.575 0 0 0-.122-.374.37.37 0 0 0-.297-.151.58.58 0 0 0-.215.04 1.44 1.44 0 0 0-.205.101 3.923 3.923 0 0 1-.845.445 2.44 2.44 0 0 1-.814.131c-.71 0-1.247-.219-1.613-.657-.365-.438-.547-1.084-.547-1.94 0-.849.182-1.492.547-1.93.366-.438.903-.657 1.613-.657.307 0 .587.042.84.126.253.085.526.235.82.45a.764.764 0 0 0 .419.142.37.37 0 0 0 .297-.152.575.575 0 0 0 .123-.374.65.65 0 0 0-.051-.273.582.582 0 0 0-.185-.212 3.312 3.312 0 0 0-1.054-.57 4.007 4.007 0 0 0-1.27-.198c-.696 0-1.306.148-1.828.445-.522.296-.923.719-1.203 1.268s-.42 1.194-.42 1.935c0 .741.14 1.388.42 1.94.28.553.68.977 1.203 1.274.522.296 1.132.444 1.828.444zm5.785-.01c.512 0 .961-.104 1.347-.313a2.15 2.15 0 0 0 .89-.9c.21-.39.313-.845.313-1.364 0-.518-.104-.972-.312-1.359a2.157 2.157 0 0 0-.891-.894c-.386-.21-.835-.313-1.347-.313s-.96.104-1.346.313a2.19 2.19 0 0 0-.896.894c-.212.387-.318.84-.318 1.36 0 .518.106.973.318 1.363.212.391.51.691.896.9.386.209.834.313 1.346.313zm-.01-.98c-.41 0-.723-.135-.942-.404-.218-.27-.328-.667-.328-1.193 0-.518.111-.914.333-1.187.222-.273.538-.41.947-.41.41 0 .724.137.943.41.218.273.327.669.327 1.187 0 .526-.109.923-.327 1.193-.219.27-.536.404-.953.404zm4.577.95c.185 0 .337-.05.456-.152.12-.1.18-.25.18-.444V9.114h.87c.382 0 .573-.159.573-.475 0-.317-.19-.475-.573-.475h-.87V7.93c0-.316.071-.559.214-.727.144-.169.372-.263.686-.283l.267-.02c.334-.034.501-.196.501-.485 0-.162-.056-.282-.168-.36-.113-.077-.306-.105-.579-.085l-.266.02c-.615.047-1.09.251-1.429.612-.338.36-.507.857-.507 1.49v.07h-.512c-.382 0-.573.16-.573.476 0 .316.191.475.573.475h.512v3.446c0 .195.062.343.185.444a.701.701 0 0 0 .46.152zm3.574 0c.185 0 .336-.05.456-.152.12-.1.18-.25.18-.444V9.114h.87c.382 0 .573-.159.573-.475 0-.317-.191-.475-.573-.475h-.87V7.93c0-.316.07-.559.214-.727.144-.169.372-.263.686-.283l.266-.02c.335-.034.502-.196.502-.485 0-.162-.056-.282-.169-.36-.112-.077-.305-.105-.578-.085l-.267.02c-.614.047-1.09.251-1.428.612-.338.36-.507.857-.507 1.49v.07h-.512c-.382 0-.573.16-.573.476 0 .316.19.475.573.475h.512v3.446c0 .195.062.343.184.444a.701.701 0 0 0 .461.152zm4.967.03c.266 0 .546-.039.84-.116a3.45 3.45 0 0 0 .788-.308c.252-.142.379-.317.379-.526a.542.542 0 0 0-.108-.353.346.346 0 0 0-.281-.132c-.096 0-.246.054-.451.162a5.756 5.756 0 0 1-.568.222c-.168.054-.36.081-.579.081-.43 0-.758-.11-.983-.328-.225-.22-.358-.561-.4-1.026h3.022c.259 0 .389-.145.389-.435 0-.485-.093-.906-.277-1.263a1.998 1.998 0 0 0-.778-.828c-.335-.196-.727-.293-1.178-.293-.47 0-.892.107-1.264.323-.372.215-.66.519-.866.91-.204.39-.307.838-.307 1.343 0 .795.236 1.422.707 1.88.47.458 1.11.687 1.915.687zm.952-3.001h-2.314c.04-.404.165-.714.373-.93.209-.215.487-.323.835-.323.341 0 .608.106.799.318.19.212.293.524.307.935zm4.485 3.001c.266 0 .546-.039.84-.116a3.45 3.45 0 0 0 .788-.308c.253-.142.38-.317.38-.526a.542.542 0 0 0-.108-.353.346.346 0 0 0-.282-.132c-.096 0-.246.054-.45.162a5.756 5.756 0 0 1-.569.222c-.167.054-.36.081-.578.081-.43 0-.758-.11-.983-.328-.226-.22-.359-.561-.4-1.026h3.021c.26 0 .39-.145.39-.435 0-.485-.093-.906-.277-1.263a1.998 1.998 0 0 0-.779-.828c-.334-.196-.727-.293-1.177-.293-.471 0-.893.107-1.265.323-.372.215-.66.519-.865.91-.205.39-.307.838-.307 1.343 0 .795.235 1.422.706 1.88.471.458 1.11.687 1.915.687zm.952-3.001h-2.314c.041-.404.166-.714.374-.93.208-.215.486-.323.834-.323.342 0 .608.106.8.318.19.212.293.524.306.935zm5.684 2.98c.204 0 .367-.058.486-.176.12-.118.18-.278.18-.48v-2.173h1.832c.772 0 1.372-.192 1.802-.576.43-.384.646-.92.646-1.606 0-.687-.216-1.221-.646-1.602-.43-.38-1.03-.57-1.802-.57H80.07c-.198 0-.353.053-.466.16-.112.109-.169.26-.169.455v5.912c0 .202.06.362.18.48.119.118.278.177.476.177zm2.334-3.829h-1.669V6.992h1.67c.907 0 1.361.39 1.361 1.172 0 .781-.454 1.172-1.362 1.172zm5.12 3.85c.328 0 .616-.074.866-.222.249-.148.431-.354.547-.617v.223a.56.56 0 0 0 .17.424.604.604 0 0 0 .435.162c.19 0 .34-.052.45-.157a.566.566 0 0 0 .164-.43v-2.465c0-.694-.169-1.21-.507-1.551-.338-.34-.855-.51-1.551-.51-.321 0-.647.037-.978.11a3.367 3.367 0 0 0-.855.304.824.824 0 0 0-.292.237.512.512 0 0 0-.087.298c0 .142.04.256.118.344.078.088.179.131.302.131.082 0 .211-.043.389-.131.28-.108.522-.19.727-.248.205-.057.406-.085.604-.085.32 0 .553.075.696.227.144.151.215.392.215.722v.233h-.256c-.744 0-1.327.047-1.75.141-.424.095-.73.246-.917.455-.188.209-.282.495-.282.859 0 .29.079.552.236.788.157.236.372.421.645.556.273.135.577.202.911.202zm.256-.91a.819.819 0 0 1-.568-.207.681.681 0 0 1-.23-.53c0-.175.054-.313.163-.414.11-.101.29-.172.543-.213.253-.04.608-.06 1.065-.06h.184v.212c0 .357-.107.648-.322.874-.215.226-.493.339-.835.339zm4.311-5.113c.232 0 .417-.062.553-.187a.632.632 0 0 0 .205-.49.61.61 0 0 0-.21-.485c-.14-.121-.322-.182-.548-.182-.232 0-.416.061-.553.182a.617.617 0 0 0-.204.485c0 .202.068.366.204.49.137.125.321.187.553.187zm0 6.003a.687.687 0 0 0 .461-.157c.123-.104.184-.254.184-.45v-3.9c0-.195-.061-.344-.184-.445a.701.701 0 0 0-.46-.151.681.681 0 0 0-.456.151c-.12.101-.18.25-.18.445v3.9c0 .196.06.346.18.45.12.105.271.157.455.157zm6.021 0c.198 0 .354-.054.466-.162a.586.586 0 0 0 .17-.444v-2.486c0-.68-.147-1.19-.441-1.526-.294-.337-.74-.505-1.341-.505-.362 0-.686.074-.973.222-.287.148-.516.36-.686.636V8.63a.532.532 0 0 0-.17-.41.615.615 0 0 0-.434-.156c-.198 0-.355.054-.471.161a.552.552 0 0 0-.175.425v3.91c0 .19.057.337.17.445.112.108.267.162.465.162s.355-.054.471-.162a.577.577 0 0 0 .174-.444v-2.254c0-.384.111-.69.333-.92.222-.229.517-.343.886-.343.314 0 .544.088.691.263.147.175.22.454.22.838v2.416c0 .188.058.336.174.444.116.108.274.162.471.162zm4.28-.01c.247.013.436-.022.57-.106a.41.41 0 0 0 .199-.37c0-.282-.17-.434-.512-.454l-.277-.02c-.464-.034-.696-.3-.696-.798V9.114h.87c.185 0 .326-.04.425-.122.1-.08.149-.198.149-.353 0-.155-.05-.273-.149-.354-.099-.08-.24-.121-.425-.121h-.87v-.93a.564.564 0 0 0-.174-.434.65.65 0 0 0-.46-.162c-.199 0-.356.054-.472.162a.564.564 0 0 0-.174.434v.93h-.512c-.184 0-.326.04-.425.121-.099.08-.148.199-.148.354 0 .155.05.273.148.353.099.081.24.122.425.122h.512v2.203c0 1.131.573 1.738 1.72 1.819l.277.02zm2.07-5.993c.231 0 .416-.062.552-.187a.632.632 0 0 0 .205-.49.61.61 0 0 0-.21-.485c-.14-.121-.322-.182-.548-.182-.232 0-.416.061-.553.182a.617.617 0 0 0-.204.485c0 .202.068.366.204.49.137.125.321.187.553.187zm0 6.003a.687.687 0 0 0 .46-.157c.123-.104.184-.254.184-.45v-3.9c0-.195-.061-.344-.184-.445a.701.701 0 0 0-.46-.151.681.681 0 0 0-.456.151c-.12.101-.18.25-.18.445v3.9c0 .196.06.346.18.45.12.105.271.157.455.157zm6.02 0c.198 0 .354-.054.466-.162a.586.586 0 0 0 .17-.444v-2.486c0-.68-.147-1.19-.441-1.526-.294-.337-.74-.505-1.341-.505-.362 0-.687.074-.973.222-.287.148-.516.36-.686.636V8.63a.532.532 0 0 0-.17-.41.615.615 0 0 0-.435-.156c-.197 0-.355.054-.47.161a.552.552 0 0 0-.175.425v3.91c0 .19.057.337.17.445.112.108.267.162.465.162s.355-.054.471-.162a.577.577 0 0 0 .174-.444v-2.254c0-.384.111-.69.333-.92.222-.229.517-.343.886-.343.314 0 .544.088.691.263.147.175.22.454.22.838v2.416c0 .188.058.336.174.444.116.108.273.162.471.162zm4.22 1.84c.853 0 1.498-.2 1.935-.597.437-.398.655-.984.655-1.758V8.659a.564.564 0 0 0-.174-.435.65.65 0 0 0-.46-.161.65.65 0 0 0-.462.161.552.552 0 0 0-.174.425v.263a1.554 1.554 0 0 0-.655-.642 2.071 2.071 0 0 0-.983-.227c-.437 0-.826.102-1.168.308a2.076 2.076 0 0 0-.793.869 2.834 2.834 0 0 0-.282 1.288c0 .485.096.913.287 1.284.191.37.456.658.794.864.338.205.725.308 1.162.308.368 0 .696-.076.983-.228.287-.151.505-.365.655-.641v.646c0 .863-.447 1.294-1.341 1.294a2.52 2.52 0 0 1-.67-.08 5.922 5.922 0 0 1-.661-.233 4.182 4.182 0 0 0-.277-.106.72.72 0 0 0-.225-.046.346.346 0 0 0-.282.131.542.542 0 0 0-.107.354c0 .209.126.388.379.536.498.276 1.12.414 1.863.414zm.02-3.022c-.403 0-.72-.132-.953-.395-.232-.262-.348-.623-.348-1.08 0-.466.116-.83.348-1.092.233-.263.55-.394.953-.394.41 0 .729.131.957.394.229.263.343.626.343 1.091 0 .458-.114.819-.343 1.081-.228.263-.548.395-.957.395z" fill="#FFF" fill-rule="nonzero" mask="url(#q)"/>
            </g>
        </g>
    </g>
</svg>
