<svg xmlns="http://www.w3.org/2000/svg" xmlns:xlink="http://www.w3.org/1999/xlink" width="91" height="91" viewBox="0 0 91 91">
    <defs>
        <linearGradient id="joy7ptazjb" x1="24.996%" x2="75.004%" y1="6.778%" y2="93.222%">
            <stop offset="0%" stop-color="#FFDD1F"/>
            <stop offset="100%" stop-color="#FFBC1F"/>
        </linearGradient>
        <path id="3284d9y0ma" d="M45.49.018C20.368.018 0 20.365 0 45.464c0 25.098 20.367 45.445 45.49 45.445 25.125 0 45.492-20.347 45.492-45.445 0-25.1-20.367-45.446-45.491-45.446z"/>
    </defs>
    <g fill="none" fill-rule="evenodd">
        <g>
            <g>
                <g transform="translate(-135 -100) translate(135 100)">
                    <mask id="j9rrbg3zfc" fill="#fff">
                        <use xlink:href="#3284d9y0ma"/>
                    </mask>
                    <path fill="url(#joy7ptazjb)" d="M45.49.018C20.368.018 0 20.365 0 45.464c0 25.098 20.367 45.445 45.49 45.445 25.125 0 45.492-20.347 45.492-45.445 0-25.1-20.367-45.446-45.491-45.446z" mask="url(#j9rrbg3zfc)"/>
                </g>
                <g fill="#383838">
                    <path d="M53.71 52.836c-5.668 5.573-13.21 8.647-21.22 8.647-8.017 0-15.55-3.074-21.218-8.647-5.668-5.573-8.794-12.989-8.794-20.863 0-7.874 3.126-15.29 8.794-20.863 5.668-5.573 13.21-8.647 21.219-8.647 8.008 0 15.55 3.074 21.219 8.647 5.668 5.573 8.794 12.989 8.794 20.863 0 7.874-3.117 15.28-8.794 20.863m8.712-33.285c-1.637-3.803-3.986-7.218-6.975-10.158-2.99-2.94-6.464-5.25-10.33-6.858C41.111.863 36.86.018 32.49.018c-4.38 0-8.621.845-12.625 2.508-3.867 1.609-7.341 3.91-10.33 6.84C3.382 15.406 0 23.434 0 31.973c0 4.306.86 8.476 2.55 12.414 1.637 3.802 3.977 7.217 6.958 10.157 6.143 6.05 14.307 9.375 22.992 9.375 4.416 0 8.703-.854 12.726-2.526 3.894-1.618 7.387-3.946 10.376-6.894 6.098-6.023 9.435-14.023 9.39-22.526-.01-4.306-.87-8.485-2.57-12.422" transform="translate(-135 -100) translate(135 100) translate(14 14)"/>
                    <path d="M26.165 21.915c1.645 0 2.98-1.313 2.98-2.93 0-1.619-1.335-2.931-2.98-2.931-1.646 0-2.98 1.312-2.98 2.93.008 1.618 1.343 2.93 2.98 2.93M46.15 23.092c-1.646 0-2.981 1.313-2.981 2.93 0 1.618 1.335 2.93 2.98 2.93 1.646 0 2.98-1.312 2.98-2.93 0-1.617-1.344-2.93-2.98-2.93M38.826 33.483c-3.373 2.337-6.372 3.11-8.675 2.238-2.853-1.06-4.498-4.35-5.047-6.84-.046-.27-.192-.503-.42-.656-.238-.162-.558-.225-.832-.171-.275.045-.512.189-.668.413-.164.234-.228.54-.173.827.365 1.52 1.901 6.625 6.317 8.297h.009c1.042.306 1.956.458 2.788.458 2.322 0 4.928-.952 7.963-2.912.42-.315.53-1.034.21-1.447-.32-.423-1.051-.521-1.472-.207" transform="translate(-135 -100) translate(135 100) translate(14 14)"/>
                </g>
            </g>
        </g>
    </g>
</svg>
