<svg height="14" viewBox="0 0 14 14" width="14" xmlns="http://www.w3.org/2000/svg">
    <g fill="none" fill-rule="evenodd">
        <g fill="#00BD90" fill-rule="nonzero" stroke="#00BD90" stroke-width=".3">
            <g>
                <path
                    d="M12.8 7.35c0-.32-.127-.62-.347-.84.249-.272.376-.637.341-1.018-.062-.677-.673-1.209-1.39-1.209H8.108c.163-.495.424-1.403.424-2.133 0-1.157-.983-2.133-1.6-2.133-.553 0-.95.312-.966.324-.064.051-.1.128-.1.209v1.809L4.33 5.686l-.063.033v-.102c0-.148-.12-.267-.267-.267H1.333C.598 5.35 0 5.948 0 6.683v4.267c0 .735.598 1.333 1.333 1.333h1.6c.577 0 1.07-.368 1.255-.881.444.228 1.041.348 1.412.348h4.895c.581 0 1.09-.391 1.209-.931.061-.279.026-.559-.096-.802.394-.198.659-.605.659-1.067 0-.189-.044-.37-.125-.533.393-.198.658-.605.658-1.067zm-1.125.658c-.103.012-.19.082-.223.18-.032.1-.005.208.07.28.136.127.211.299.211.482 0 .337-.254.62-.59.658-.104.012-.19.082-.224.18-.032.1-.005.208.07.28.176.165.247.397.194.636-.066.297-.355.513-.688.513H5.6c-.433 0-1.16-.204-1.411-.456-.076-.076-.192-.098-.29-.057-.1.04-.166.138-.166.246 0 .441-.359.8-.8.8h-1.6c-.44 0-.8-.359-.8-.8V6.683c0-.44.36-.8.8-.8h2.4v.267c0 .092.048.178.127.227.078.047.176.052.26.011l.533-.266c.054-.027.097-.072.122-.127l1.6-3.466c.016-.036.025-.074.025-.112V.695c.11-.062.303-.145.533-.145C7.226.55 8 1.276 8 2.15c0 .939-.51 2.292-.516 2.305-.03.082-.02.174.03.246.05.072.132.116.22.116h3.67c.444 0 .822.318.859.724.028.304-.118.594-.38.755-.081.05-.13.141-.126.237.004.097.059.183.144.228.226.114.366.34.366.589 0 .337-.255.62-.592.658z"
                    transform="translate(-35 -2) translate(36 3)" />
                <path
                    d="M4 5.883c-.147 0-.267.12-.267.267v4.8c0 .147.12.267.267.267.147 0 .267-.12.267-.267v-4.8c0-.147-.12-.267-.267-.267z"
                    transform="translate(-35 -2) translate(36 3)" />
            </g>
        </g>
    </g>
</svg>
